<?xml version='1.0' encoding='utf-8'?>
<svg xmlns="http://www.w3.org/2000/svg" width="480.56686mm" height="529.16608mm" viewBox="0 0 480.56686 529.16608" version="1.1" id="svg5" xml:space="preserve"><defs id="defs2" /><g id="layer1"><path style="fill:#000000;stroke-width:1" d="m 219.5331000000001 528.6239999999998 c -2.1819,-0.716 -4.9282,-2.977 -5.288,-4.354 -0.1323,-0.506 0.1524,-0.339 0.9933,0.578 2.655,2.898 7.6794,3.751 11.5081,1.951 3.8518,-1.81 7.0961,-5.853 8.4843,-10.572 0.7146,-2.427 0.902,-4.607 0.7457,-8.662 l -0.09,-2.475 -0.7928,2.475 c -0.436,1.362 -1.0624,2.99 -1.3922,3.62 -1.4643,2.796 -4.5313,5.321 -7.8568,6.465 -1.8703,0.644 -7.2255,1.356 -7.2255,0.962 0,-0.105 1.1667,-0.916 2.5919,-1.805 4.3309,-2.699 6.7855,-5.848 8.1526,-10.455 0.8479,-2.859 0.8028,-2.941 -1.1096,-1.985 -0.9241,0.461 -2.6179,1.083 -3.7645,1.38 l -2.0858,0.541 1.2719,-1.306 c 2.0276,-2.081 2.8375,-4.303 2.9918,-8.201 0.2316,-5.859 -1.6397,-11.634 -6.9888,-21.569 -5.6308,-10.456 -6.3795,-12.563 -6.3384,-17.841 0.03,-3.752 0.4289,-5.364 0.8178,-3.294 0.7046,3.759 4.1344,8.806 14.0459,20.671 6.9979,8.377 8.7459,10.796 10.4097,14.395 2.1549,4.664 2.7853,8.019 2.7993,14.887 0.01,6.935 -0.5412,9.565 -3.0299,14.348 -4.1474,7.972 -12.2879,12.398 -18.8448,10.246 z m -139.3285,-7.471 c -9.5918,-0.741 -17.2131,-2.465 -22.7928,-5.158 -2.7101,-1.308 -3.8247,-2.108 -6.0106,-4.311 -4.1094,-4.142 -6.4397,-9.449 -8.339,-18.995 -0.4771,-2.402 -1.3751,-6.242 -1.9945,-8.535 -1.8592,-6.884 -1.5525,-11.049 1.5064,-20.433 l 1.4974,-4.596 0.02,-6.542 c 0.03,-7.339 0.2766,-8.329 2.5678,-10.217 l 1.2138,-1.001 -0.5763,-2.258 c -0.3178,-1.242 -1.3802,-5.042 -2.3624,-8.446 -3.7846,-13.115 -4.1665,-16.694 -3.4338,-32.176 0.5663,-11.951 0.6144,-20.764 0.1764,-32.353 -0.2887,-7.637 -0.1293,-10.811 0.7126,-14.178 0.1704,-0.682 -0.1002,-0.802 -3.4057,-1.505 -1.9745,-0.421 -6.1831,-1.551 -9.3523,-2.512 -3.1692,-0.96 -6.8395,-1.934 -8.1575,-2.164 -2.9838,-0.519 -7.7125,-0.258 -10.8948,0.601 l -2.4225,0.655 -0.7086,-0.876 c -1.2348,-1.526 -2.4405,-4.247 -2.9537,-6.67 -0.3568,-1.683 -0.4991,-5.087 -0.5041,-12.068 0,-8.521 -0.1133,-10.401 -0.864,-15.204 -1.76,-11.268 -2.1759,-17.653 -1.6457,-25.281 0.4279,-6.151 1.3671,-12.359 2.6129,-17.274 l 0.7938,-3.131 0.429,4.926 c 1.3049,14.995 7.038,24.081 16.9004,26.782 4.6866,1.283 14.7475,1.034 23.1375,-0.572 6.8616,-1.314 15.823,-4.795 18.8058,-7.305 1.7319,-1.457 1.4593,-0.63 -0.421,1.281 -4.7768,4.853 -13.0587,9.309 -25.084,13.497 -6.0577,2.11 -8.1515,3.176 -9.5387,4.855 -2.3934,2.898 -2.3513,5.837 0.1374,9.472 1.6798,2.453 1.6838,2.466 1.4563,4.682 -0.2095,2.051 -0.1594,2.291 0.6504,3.101 1.0915,1.09 2.6872,1.136 6.9218,0.196 7.4339,-1.65 15.404,-5.503 22.01,-10.642 1.0965,-0.853 1.1887,-0.729 0.4831,0.646 -1.0665,2.077 -2.6921,8.673 -2.6921,10.922 0,1.929 0.1272,2.391 0.8639,3.128 1.3802,1.38 3.095,0.268 5.4404,-3.523 l 1.2969,-2.097 0.1063,4.395 c 0.1353,5.644 -0.3759,10.334 -1.5606,14.311 -1.8873,6.336 -1.9294,6.554 -1.4533,7.551 0.7146,1.499 2.198,1.399 4.4772,-0.303 1.0544,-0.786 2.0476,-1.43 2.207,-1.43 0.4691,0 0.3328,2.513 -0.2576,4.787 -0.6765,2.602 -2.0176,5.015 -4.87,8.765 -2.5699,3.378 -3.2244,5.075 -2.9999,7.783 0.1825,2.195 1.3712,4.105 3.1141,5.007 1.3611,0.704 2.0687,0.667 3.4559,-0.179 1.4643,-0.892 1.9574,-2.108 1.9143,-4.717 -0.03,-1.958 0.06,-2.187 1.7329,-4.374 2.2512,-2.936 3.6503,-5.714 4.5313,-8.995 l 0.6976,-2.597 0.02,3.207 c 0.03,4.075 -0.6625,6.441 -2.6661,9.147 -0.8549,1.155 -1.5555,2.407 -1.5555,2.783 0,0.608 -0.4681,3.107 -2.7914,14.892 l -0.6224,3.156 -2.4465,-4.394 c -1.3451,-2.416 -2.8465,-4.844 -3.3366,-5.394 l -0.89,-1 -0.9071,0.714 c -0.4981,0.391 -1.3711,0.823 -1.9394,0.959 -0.5683,0.135 -1.333,0.503 -1.6999,0.817 -1.6267,1.392 -2.4966,5.565 -1.9624,9.407 0.3448,2.478 0.3127,2.678 -1.1156,7.111 -1.331,4.131 -1.4923,5.028 -1.7088,9.511 -0.2115,4.39 -0.3438,5.153 -1.1697,6.748 -0.5122,0.989 -1.2077,2.838 -1.5475,4.11 -0.6014,2.258 -0.5974,2.384 0.1393,5.274 0.449,1.762 0.9191,5.298 1.1596,8.727 0.4701,6.712 0.9963,9.325 2.1159,10.517 1.0373,1.105 3.8928,2.168 6.6641,2.482 l 2.1809,0.246 2.611,3.112 c 3.0108,3.588 5.0364,6.855 6.7002,10.806 1.2148,2.883 2.3223,6.788 2.3513,8.287 0.01,0.623 0.2927,0.263 1.0184,-1.304 2.6349,-5.692 8.6646,-12.937 13.6159,-16.359 3.1171,-2.155 6.9718,-4.034 9.9225,-4.836 3.1782,-0.865 8.9965,-1.041 12.1987,-0.369 5.2389,1.098 10.4969,4.457 13.6009,8.684 0.6876,0.938 1.2499,1.793 1.2499,1.902 0,0.109 -0.8941,-0.211 -1.9855,-0.711 -15.6957,-7.185 -33.3097,-0.684 -39.9859,14.758 -2.221,5.136 -2.7402,7.935 -2.7222,14.654 0.01,5.488 0.1003,6.28 0.9662,9.121 2.3714,7.761 6.9729,13.721 14.4559,18.721 5.0865,3.399 11.9551,6.419 18.6343,8.193 l 2.9768,0.791 -5.4514,0.447 c -6.8957,0.566 -27.0926,0.786 -32.6592,0.358 z m -13.8454,-35.185 c 0.4249,-1.108 0.2034,-8.972 -0.3338,-11.8 -0.7206,-3.798 -2.3554,-8.404 -4.1354,-11.65 -1.5215,-2.774 -6.4998,-9.581 -7.0069,-9.581 -0.1654,0 0.1644,0.984 0.7337,2.187 2.0446,4.324 2.21,8.123 0.444,10.222 -0.5082,0.604 -1.8112,1.523 -2.8956,2.042 -1.9324,0.925 -1.9765,0.98 -2.19,2.705 -0.6284,5.093 1.9494,10.389 6.4737,13.298 1.771,1.138 6.8917,3.113 8.1144,3.129 0.3198,0 0.6776,-0.245 0.7959,-0.552 z m 57.0225,32.726 c -10.4798,-1.661 -18.5441,-6.576 -21.8687,-13.33 -1.3891,-2.822 -1.782,-7.624 -0.877,-10.726 2.2291,-7.647 9.1658,-9.835 13.9507,-4.4 0.8189,0.931 1.4884,1.875 1.4884,2.097 0,0.223 -0.3438,1.353 -0.7647,2.514 -1.0615,2.923 -1.0404,6.456 0.05,8.827 l 0.8138,1.768 0.4741,-3.36 c 0.2606,-1.847 0.5202,-3.597 0.5773,-3.889 0.06,-0.291 0.6174,0.564 1.2458,1.9 2.2351,4.755 7.1804,8.419 13.7112,10.156 4.0111,1.067 10.9749,1.301 15.5443,0.522 3.2855,-0.56 11.3588,-2.921 11.0491,-3.23 -0.08,-0.08 -1.326,0.1 -2.7713,0.391 -1.4453,0.294 -4.9542,0.633 -7.7987,0.752 -10.8577,0.454 -16.8212,-1.878 -19.792,-7.74 -1.351,-2.667 -1.2939,-2.999 0.3007,-1.722 1.7821,1.427 6.7463,3.713 9.9947,4.603 6.3204,1.732 14.8949,2.241 21.7394,1.291 3.3646,-0.467 3.3677,-0.585 0.03,-1.214 -3.1803,-0.597 -8.1916,-3.189 -10.4327,-5.395 -2.632,-2.591 -3.7075,-5.033 -3.7195,-8.446 0,-1.958 0.1834,-3.073 0.7297,-4.261 2.229,-4.853 6.8375,-6.933 10.8837,-4.912 0.9221,0.461 1.7349,0.931 1.8041,1.044 0.07,0.114 -1.1045,0.199 -2.6119,0.19 -2.3303,-0.01 -2.9257,0.11 -3.9861,0.836 -2.2511,1.538 -2.9517,2.972 -2.9397,6.017 0,1.473 0.2366,3.313 0.5122,4.092 l 0.5011,1.414 0.2626,-1.414 c 0.1454,-0.779 0.2727,-1.972 0.2847,-2.652 0.02,-1.404 1.9063,-5.658 2.5037,-5.658 0.2345,0 0.2996,0.291 0.1623,0.724 -0.2846,0.898 1.0414,5.387 1.7691,5.991 0.441,0.365 0.5352,0.34 0.5352,-0.144 0,-1.378 2.9076,-5.864 3.8006,-5.864 0.2987,0 0.442,0.612 0.442,1.882 0,5.83 4.3318,9.886 10.563,9.891 7.8649,0.01 17.1269,-5.719 23.79,-14.705 4.2026,-5.668 11.1754,-18.69 15.2968,-28.565 0.9271,-2.221 1.8392,-4.197 2.0266,-4.391 0.2245,-0.232 0.2836,-0.17 0.1724,0.176 -2.9868,9.324 -4.7147,13.848 -7.6514,20.033 -6.3424,13.357 -16.3762,26.623 -24.3964,32.256 -7.6534,5.374 -21.2132,11.538 -31.5076,14.322 -5.9315,1.603 -11.3538,2.37 -17.8175,2.518 -3.3055,0.08 -6.9397,-0.01 -8.0743,-0.189 z m -28.3444,-13.851 c -0.9722,-1.202 -3.1381,-3.657 -4.8119,-5.455 -3.8939,-4.18 -5.4925,-6.612 -6.8205,-10.37 -0.9572,-2.71 -1.0674,-3.459 -1.0755,-7.264 -0.01,-6.505 1.7029,-11.438 5.6218,-16.177 2.2611,-2.733 3.2604,-3.216 1.4603,-0.706 -4.0031,5.583 -5.7821,12.369 -4.8169,18.375 0.5983,3.718 1.8612,6.725 4.415,10.507 l 2.1379,3.168 0.2084,-4.402 c 0.3107,-6.581 1.9675,-11.715 5.4905,-17.014 8.9002,-13.389 23.1115,-16.876 31.3973,-7.705 2.9527,3.269 4.835,9.467 4.2387,13.954 l -0.2356,1.768 -0.4971,-1.945 c -0.7337,-2.871 -1.762,-4.771 -3.542,-6.552 -3.8428,-3.842 -9.0536,-5.24 -14.4449,-3.876 -7.9681,2.017 -14.6522,8.917 -17.4626,18.028 -1.4543,4.714 -1.327,11.29 0.3097,15.945 0.3698,1.052 0.5643,1.911 0.434,1.91 -0.1313,0 -1.0344,-0.986 -2.0066,-2.189 z m 149.6029,0.423 c 0.5342,-1.879 0.1423,-4.506 -1.293,-8.672 -1.6688,-4.843 -4.6155,-11.226 -6.7243,-14.565 -0.7938,-1.257 -1.3811,-2.348 -1.3049,-2.424 0.2886,-0.289 4.2025,3.513 6.3173,6.136 1.2459,1.545 2.8966,4.191 3.8007,6.09 1.3931,2.932 1.6166,3.725 1.7499,6.24 0.1343,2.525 0.04,3.114 -0.7336,4.773 -0.4871,1.041 -1.1506,2.211 -1.4744,2.6 -0.5773,0.692 -0.5843,0.688 -0.3377,-0.178 z m -30.8972,-9.457 c 2.2501,-2.567 2.4776,-7.037 0.6875,-13.525 -0.6164,-2.237 -1.6016,-5.816 -2.1879,-7.956 -1.1035,-4.023 -1.8442,-10.427 -1.0023,-8.663 7.5862,15.89 7.8799,16.683 7.8929,21.392 0.01,3.25 -0.07,3.673 -0.9842,5.229 -0.5473,0.93 -1.74,2.239 -2.651,2.908 -1.7931,1.315 -2.625,1.606 -1.755,0.615 z m -38.6278,-11.735 c -7.3116,-0.994 -14.7174,-6.155 -17.7894,-12.398 -3.7485,-7.615 -2.8755,-17.7 2.2271,-25.717 l 1.4032,-2.205 -2.7282,-1.996 c -1.5005,-1.097 -3.1642,-2.4 -3.6974,-2.896 -0.5323,-0.496 -1.0184,-0.833 -1.0785,-0.75 -0.06,0.08 -0.3748,0.573 -0.6966,1.088 -0.452,0.725 -0.9692,0.991 -2.2812,1.171 -3.7785,0.519 -5.9585,-0.767 -8.4131,-4.962 -0.7306,-1.25 -1.3701,-2.272 -1.4222,-2.272 -0.05,0 -1.2408,1.182 -2.643,2.629 -2.8625,2.951 -4.3609,3.827 -6.2773,3.667 l -1.3109,-0.109 -1.8923,-4.552 c -1.0795,-2.595 -1.9745,-5.342 -2.0828,-6.391 -0.1994,-1.933 0.3949,-4.565 1.74,-7.709 l 0.7186,-1.679 h 5.1066 c 2.8084,0 5.3923,0.153 5.7421,0.34 0.3498,0.187 0.8268,0.801 1.0604,1.365 l 0.4239,1.025 1.0113,-1.012 c 1.0103,-1.01 1.0133,-1.011 5.695,-1.011 3.7785,0 4.8049,0.108 5.304,0.56 0.5703,0.517 0.6655,0.488 1.2308,-0.374 0.8179,-1.248 2.6621,-2.141 6.602,-3.197 4.2948,-1.151 5.9004,-1.148 6.9879,0 l 0.8339,0.888 0.9311,-0.892 c 1.1947,-1.145 3.7024,-2.012 9.1097,-3.152 5.5486,-1.169 6.161,-1.16 7.5912,0.117 1.0735,0.959 1.1547,1.189 1.1547,3.271 0,1.233 -0.08,3.033 -0.1774,4.001 l -0.1765,1.761 1.4143,0.473 c 2.3964,0.803 7.06,0.922 11.0481,0.284 1.9925,-0.32 3.981,-0.508 4.42,-0.419 0.438,0.09 1.4794,0.254 2.3143,0.367 1.4753,0.2 1.5334,0.171 2.0446,-1.054 0.6495,-1.555 0.5162,-1.787 -1.1857,-2.059 -2.2762,-0.363 -5.5817,-2.253 -7.3146,-4.181 -2.0978,-2.333 -2.8204,-4.684 -2.4576,-7.99 l 0.2616,-2.38 0.5673,2.301 c 0.6886,2.79 1.7169,4.525 3.6743,6.201 1.732,1.482 5.1728,3.217 7.02,3.54 1.1757,0.204 1.3481,0.13 1.8071,-0.781 2.195,-4.35 6.0648,-20.084 8.2277,-33.448 0.3378,-2.091 0.7256,-3.801 0.8619,-3.801 0.1353,0 0.5503,0.341 0.9201,0.757 0.9612,1.079 4.4912,2.678 6.5359,2.96 0.9572,0.131 1.7399,0.343 1.7399,0.471 0,0.127 -0.5332,0.657 -1.1837,1.176 -1.2889,1.029 -2.3523,2.934 -2.3523,4.215 0,0.86 3.6523,8.96 4.4591,9.888 0.4801,0.555 0.2737,1.184 -6.0728,18.485 l -0.4971,1.357 1.321,-0.193 c 0.7257,-0.105 2.196,-0.291 3.2654,-0.412 3.3707,-0.38 9.8213,-1.931 13.9126,-3.346 3.6333,-1.256 12.2519,-5.076 12.2519,-5.43 0,-0.08 -1.2328,0.243 -2.7403,0.726 -2.3262,0.745 -3.2463,0.856 -6.0988,0.738 -5.272,-0.219 -8.5955,-2.158 -10.4698,-6.11 -1.2077,-2.548 -1.0394,-2.981 0.5061,-1.306 3.6173,3.917 10.9449,4.82 18.8819,2.324 3.9991,-1.257 9.4856,-3.888 13.9467,-6.688 2.0467,-1.285 3.8257,-2.228 3.953,-2.096 0.4881,0.509 -8.4833,8.181 -19.4191,16.605 -9.8183,7.565 -15.0392,13.289 -18.4048,20.179 -3.8768,7.938 -4.1144,15.673 -0.6936,22.604 2.6089,5.285 7.462,9.029 13.2902,10.252 3.2594,0.685 4.2887,0.664 6.8746,-0.141 2.5358,-0.789 4.384,-2.095 5.2048,-3.676 0.3228,-0.622 0.6535,-0.936 0.7337,-0.696 0.2526,0.747 -0.9662,4.414 -2.2491,6.767 -0.6745,1.239 -1.1797,2.292 -1.1216,2.34 0.406,0.335 4.0843,1.292 6.2242,1.617 6.2081,0.944 9.1097,-1.773 7.6814,-7.192 -0.7246,-2.75 -1.7139,-4.603 -3.4839,-6.528 -1.313,-1.427 -1.3791,-1.575 -0.5933,-1.338 1.5345,0.464 3.0078,1.526 4.9111,3.538 5.4614,5.774 4.9593,13.115 -1.0985,16.047 -1.9153,0.927 -6.0597,2.002 -9.6349,2.499 -11.1352,1.549 -21.4096,-1.944 -31.3091,-10.646 -4.9161,-4.321 -8.1084,-8.991 -9.3983,-13.752 -0.9201,-3.393 -0.858,-9.903 0.1293,-13.674 0.7817,-2.986 2.678,-8.047 3.2924,-8.788 0.5383,-0.649 -0.474,-0.761 -10.9899,-1.22 -19.8672,-0.868 -30.346,1.077 -40.0941,7.44 -4.4882,2.931 -7.7526,6.628 -10.2784,11.645 -3.538,7.024 -3.7926,15.178 -0.6665,21.346 3.1271,6.172 10.8236,9.232 18.909,7.518 6.3534,-1.347 10.8246,-5.492 12.8542,-11.917 2.5568,-8.091 -0.5422,-17.491 -6.6291,-20.11 -4.6606,-2.004 -11.1553,-0.109 -13.234,3.863 -0.9612,1.835 -1.0825,4.503 -0.2767,6.062 0.6104,1.18 1.0334,1.393 0.7036,0.353 -0.3027,-0.953 0.3719,-3.263 1.294,-4.435 1.2197,-1.552 3.2594,-2.284 6.3835,-2.293 5.3251,-0.01 6.7954,1.359 6.8054,6.357 0,3.458 -0.5061,5.212 -2.0286,6.946 -1.8712,2.131 -3.523,2.772 -7.1562,2.775 -2.9557,0 -3.3406,-0.08 -5.4183,-1.21 -6.0608,-3.286 -8.2929,-10.486 -5.0866,-16.406 1.775,-3.279 6.3574,-6.804 11.5362,-8.875 5.8403,-2.337 10.5821,-2.5 15.9703,-0.551 1.7339,0.628 4.426,1.601 5.9816,2.164 2.3954,0.866 3.2714,1.009 5.718,0.93 l 2.8905,-0.09 -2.0366,2.121 c -3.7194,3.876 -4.7498,6.131 -6.2422,13.665 -1.6798,8.479 -3.0519,12.116 -6.1078,16.182 -4.6045,6.127 -13.1148,9.601 -20.9256,8.539 z m 75.9435,-21.216 c -2.7121,-0.868 -5.0584,-2.423 -7.4749,-4.956 -6.2913,-6.596 -6.3244,-16.425 -0.09,-25.791 1.773,-2.662 8.3529,-9.583 9.1117,-9.583 0.2164,0 -0.03,0.518 -0.5393,1.15 -6.7062,8.259 -9.6639,18.146 -7.8007,26.076 1.1707,4.982 4.4992,9.954 8.3199,12.43 0.9552,0.619 1.737,1.178 1.737,1.243 0,0.275 -1.3762,0.03 -3.2665,-0.569 z m 27.8012,-6.371 c -9.4394,-1.454 -17.5158,-8.86 -20.1558,-18.482 -0.9481,-3.455 -1.0103,-8.832 -0.1513,-13.001 1.6758,-8.129 5.3531,-15.018 14.7244,-27.58 7.3136,-9.804 10.7885,-16.214 14.2795,-26.341 1.2067,-3.501 2.2541,-6.564 2.3262,-6.807 0.2456,-0.822 0.7407,-0.449 1.1757,0.884 0.2616,0.801 0.5653,5.383 0.7678,11.579 0.1844,5.64 0.4871,12.714 0.6725,15.72 0.1854,3.006 0.2806,5.523 0.2115,5.592 -0.07,0.07 -1.1025,0.354 -2.2953,0.632 -1.1927,0.279 -2.7602,0.809 -3.4829,1.179 -6.7734,3.465 -12.1536,12.927 -12.7048,22.345 -0.434,7.423 2.3914,14.068 7.6774,18.052 7.0039,5.279 14.3566,4.929 17.6661,-0.841 1.2499,-2.182 1.3431,-1.742 0.5583,2.659 -1.2659,7.098 -5.7811,12.04 -12.6277,13.819 -2.5498,0.663 -6.4446,0.928 -8.6416,0.591 z m -194.4918,-17.962 c -1.1827,-1.267 -7.1994,-13.444 -8.2377,-16.673 -0.9532,-2.966 -0.854,-4.848 0.3868,-7.352 0.7367,-1.484 0.9943,-1.709 2.0788,-1.809 2.2751,-0.208 2.0175,-0.769 -0.3719,-0.806 -7.929,-0.122 -7.3727,-0.04 -8.4963,-1.296 -1.2218,-1.367 -1.2979,-2.494 -0.5222,-7.758 0.2797,-1.905 0.7557,-5.371 1.0564,-7.705 0.5192,-4.032 0.6565,-4.46 2.7603,-8.617 1.2178,-2.407 2.6119,-4.692 3.098,-5.079 0.7988,-0.635 1.2799,-0.688 4.9613,-0.541 2.2431,0.09 4.391,0.332 4.7738,0.537 1.0605,0.571 3.3156,5.063 3.8688,7.705 0.6114,2.922 1.4433,18.272 1.0915,20.146 -0.1724,0.92 -0.6896,1.786 -1.5535,2.601 -0.7126,0.672 -1.1366,1.275 -0.9422,1.341 0.1935,0.07 0.853,0.424 1.4644,0.797 0.9501,0.579 1.1325,0.924 1.2598,2.385 0.1003,1.146 -0.06,2.217 -0.4991,3.255 -0.7728,1.845 -1.5205,6.365 -2.0537,12.419 -0.4219,4.783 -1.0504,6.649 -2.4024,7.128 -0.6495,0.231 -1.0013,0.09 -1.7209,-0.678 z m -14.5751,-0.127 c -0.9482,-1.018 -4.0282,-8.276 -5.1638,-12.169 -1.4493,-4.966 -1.8371,-8.259 -1.2107,-10.275 0.2916,-0.94 0.91,-1.962 1.4132,-2.338 1.1065,-0.826 5.0003,-1.412 7.052,-1.062 1.2869,0.219 1.5836,0.429 1.8682,1.317 0.1865,0.58 0.5874,1.34 0.8891,1.687 0.5011,0.574 0.473,0.86 -0.3097,3.182 -0.7938,2.355 -0.864,3.134 -0.9241,10.153 -0.04,4.181 -0.08,8.199 -0.09,8.928 -0.03,1.305 -0.05,1.326 -1.4253,1.326 -0.9722,0 -1.6146,-0.229 -2.0987,-0.749 z m 26.6665,-0.4 c -0.3087,-0.437 -1.2107,-2.785 -2.0045,-5.215 -1.311,-4.016 -1.4593,-4.849 -1.6257,-9.109 -0.1624,-4.162 -0.1002,-4.942 0.5773,-6.939 l 0.7597,-2.249 -0.9521,-1.834 c -1.3471,-2.597 -1.4032,-4.622 -0.3097,-11.125 1.3901,-8.269 2.4064,-11.902 4.5844,-16.378 1.5715,-3.229 2.1007,-4.01 2.8484,-4.197 0.5052,-0.126 2.8976,-0.164 5.3181,-0.08 5.2159,0.173 5.9225,0.523 7.0761,3.505 2.0737,5.36 2.7813,10.61 2.7683,20.534 0,6.978 -0.09,8.135 -0.6204,8.945 -1.0023,1.529 -2.0597,1.742 -6.2272,1.249 -2.0406,-0.242 -3.9499,-0.514 -4.2426,-0.604 -0.2927,-0.09 0.1032,0.213 0.881,0.674 1.1316,0.67 1.4222,1.053 1.4503,1.908 0.02,0.588 0.3027,1.478 0.6304,1.978 0.5763,0.881 0.5463,1.025 -1.0303,4.875 -0.893,2.182 -2.1088,5.821 -2.7012,8.088 -0.5923,2.267 -1.2939,4.542 -1.5585,5.056 -0.899,1.744 -4.6105,2.353 -5.6218,0.922 z m 17.4948,0.565 c -2.2561,-0.743 -3.4448,-2.371 -4.6536,-6.371 -1.4483,-4.79 -0.7537,-12.869 1.311,-15.267 l 0.8078,-0.937 5.4223,0.05 c 6.4176,0.05 7.3237,0.265 8.1606,1.917 0.9201,1.816 0.7657,3.075 -0.7638,6.24 -1.7509,3.619 -7.0329,13.165 -7.7395,13.985 -0.5182,0.601 -1.4624,0.745 -2.5448,0.388 z m -55.6635,-0.918 c -1.0814,-1.655 -2.0186,-4.253 -3.2413,-8.988 -0.6956,-2.69 -1.6738,-6.004 -2.174,-7.365 -1.311,-3.565 -1.4072,-5.36 -0.3698,-6.896 0.46,-0.681 1.5094,-1.609 2.3313,-2.063 l 1.4954,-0.826 -0.86,-1.022 c -1.8632,-2.214 -1.6287,-5.481 0.7387,-10.306 2.209,-4.504 2.5749,-6.08 2.5799,-11.126 0,-4.091 0.05,-4.356 0.904,-5.373 0.4941,-0.587 1.2088,-1.166 1.5866,-1.287 1.5596,-0.495 3.7505,2.365 5.1527,6.723 0.856,2.663 0.884,2.967 0.4681,5.214 -0.3739,2.02 -0.3518,3.025 0.1453,6.541 0.3238,2.285 0.5874,5.463 0.5874,7.06 0,3.542 -0.1143,3.637 -4.397,3.637 -1.6658,0 -3.0289,0.08 -3.0289,0.166 0,0.09 0.4089,1.086 0.909,2.21 0.6796,1.53 0.85,2.353 0.6766,3.28 -0.5904,3.157 -0.5402,7.34 0.1573,13.211 1.0274,8.656 1.1256,8.005 -1.2037,8.005 -1.6187,0 -2.0226,-0.131 -2.4576,-0.795 z m 84.5521,-20.57 c -1.6387,-0.441 -3.4739,-1.817 -4.1935,-3.144 -0.9772,-1.802 -0.9492,-8.654 0.07,-16.507 0.4471,-3.451 1.0274,-4.929 3.2775,-8.341 2.7522,-4.173 4.6526,-4.694 7.3056,-2.001 0.909,0.924 1.9374,2.078 2.2842,2.564 0.3878,0.544 0.6925,0.72 0.7938,0.459 0.5171,-1.341 1.7439,-2.265 3.8858,-2.926 3.6573,-1.13 5.6428,-0.855 7.3357,1.015 0.3698,0.409 0.8028,0.744 0.9622,0.744 0.5733,0 1.3119,-3.794 1.4883,-7.648 0.1824,-3.972 0.7928,-6.982 1.3471,-6.639 0.1664,0.102 0.3017,0.516 0.3017,0.92 0,2.773 2.1298,5.704 4.0121,5.519 2.3433,-0.23 3.3406,-3.448 3.6493,-11.775 0.2195,-5.901 -0.1744,-7.711 -1.7159,-7.889 -0.5222,-0.06 -1.4513,0.15 -2.0647,0.468 -1.1095,0.573 -1.1145,0.572 -0.879,-0.244 0.1303,-0.452 0.7818,-1.991 1.4463,-3.422 1.5405,-3.314 4.9873,-6.855 8.2487,-8.473 1.2469,-0.619 2.0116,-1.125 1.6999,-1.125 -0.9562,0 -7.8218,2.356 -9.8394,3.377 -8.1755,4.136 -14.0429,11.541 -15.5303,19.606 -0.7196,3.902 -0.8789,4.01 -1.5685,1.06 -1.9124,-8.176 -0.3969,-16.983 4.2707,-24.82 2.1679,-3.641 8.1345,-9.81 11.7006,-12.099 5.731,-3.676 11.6875,-5.518 18.6684,-5.773 11.1162,-0.406 20.6118,3.268 28.9878,11.216 1.746,1.657 2.9417,2.695 2.6551,2.306 -6.4126,-8.706 -17.1911,-14.775 -28.595,-16.1 -6.3494,-0.738 -13.2461,0.51 -18.6935,3.382 -1.6046,0.846 -2.9166,1.413 -2.9166,1.261 0,-0.536 1.335,-4.152 2.0547,-5.561 0.3999,-0.784 1.6597,-2.288 2.8003,-3.341 3.7045,-3.424 8.1536,-5.018 14.061,-5.036 3.522,-0.01 3.53,-0.01 1.9444,-0.487 -4.1745,-1.248 -11.1082,-1.216 -16.0875,0.07 -2.8916,0.749 -6.7073,2.606 -8.8391,4.302 -2.3273,1.851 -3.6042,4.281 -4.4431,8.447 -0.3719,1.853 -0.8419,3.676 -1.0424,4.051 -1.6327,3.051 -7.5983,0.917 -10.0809,-3.607 -0.895,-1.629 -1.0293,-2.237 -1.0043,-4.534 0.03,-3.171 1.1887,-6.116 3.2404,-8.264 0.8158,-0.854 1.0293,-1.226 0.5673,-0.989 -2.9918,1.535 -5.8102,9.831 -5.3311,15.695 0.2084,2.54 1.2157,5.247 2.4385,6.548 0.4129,0.44 0.5803,0.8 0.3719,0.8 -0.2095,0 -1.2188,-0.915 -2.2431,-2.033 -7.3758,-8.052 -5.1608,-20.862 4.8981,-28.319 6.2702,-4.648 15.0261,-7.129 25.1541,-7.127 7.7576,0 13.655,1.24 21.3335,4.476 9.0906,3.832 19.9744,12.983 25.2504,21.231 0.6584,1.029 1.2738,1.872 1.3671,1.872 0.3217,0 -3.062,-6.432 -5.3472,-10.164 -1.2599,-2.059 -3.9911,-6.143 -6.0678,-9.077 -4.6255,-6.534 -6.0988,-9.324 -6.1008,-11.557 0,-2.735 2.6209,-5.621 5.1086,-5.621 1.4172,0 3.8186,1.525 5.7891,3.676 3.3166,3.62 8.2478,12.238 10.4909,18.336 1.5605,4.242 1.5655,2.987 0.01,-2.688 -2.5087,-9.154 -5.8483,-16.087 -9.6008,-19.931 -1.1927,-1.222 -2.0908,-2.221 -1.9966,-2.221 0.09,0 1.2288,0.555 2.5218,1.234 2.9597,1.557 6.177,4.193 8.0072,6.561 0.7777,1.007 1.6657,2.154 1.9724,2.55 0.5162,0.666 0.5342,0.507 0.2426,-2.073 -0.1734,-1.535 -0.5443,-3.796 -0.8229,-5.024 -0.7156,-3.141 -0.6565,-4.165 0.2776,-4.82 1.6688,-1.169 4.4682,-0.46 8.4071,2.13 l 2.2983,1.511 0.1002,-4.019 c 0.09,-3.714 -0.3799,-7.284 -1.5656,-11.841 l -0.2295,-0.884 0.8479,0.755 c 2.2081,1.963 4.9192,2.49 5.6769,1.102 0.9462,-1.732 0.7818,-10.453 -0.2776,-14.762 -0.1193,-0.486 1.0704,1.039 2.644,3.391 3.6052,5.386 7.493,9.218 11.1133,10.953 1.4533,0.696 3.081,1.213 3.8196,1.213 h 1.287 l 0.1924,-2.032 c 0.1062,-1.119 0.3117,-2.33 0.456,-2.692 0.2376,-0.596 0.1484,-0.63 -0.9391,-0.354 -2.1369,0.542 -6.3835,0.341 -7.7095,-0.365 -4.4531,-2.372 -7.8328,-9.036 -9.1989,-18.137 -0.6304,-4.196 -0.45,-10.371 0.5071,-17.412 0.8359,-6.148 0.855,-6.64 0.3428,-8.662 -1.0844,-4.282 -3.1541,-7.587 -7.507,-11.987 -4.2657,-4.31 -10.1731,-7.942 -13.9678,-8.586 -1.4954,-0.254 -1.7139,-0.656 -0.5302,-0.973 1.2629,-0.338 5.9485,-0.24 7.6905,0.161 2.3864,0.549 5.6057,2.255 8.0794,4.281 1.8411,1.508 5.1727,5.487 6.5939,7.876 0.2426,0.407 0.3578,-2.166 0.3659,-8.183 0.01,-9.068 0.6264,-15.323 1.777,-18.076 0.6846,-1.638 0.6765,-1.647 -0.6395,-0.66 -2.7722,2.081 -6.9417,3.642 -10.9198,4.088 -5.2348,0.587 -9.693,-0.774 -13.3733,-4.083 -2.0146,-1.811 -2.1399,-2.287 -0.3198,-1.212 3.2143,1.896 10.53,2.505 15.3309,1.276 3.526,-0.903 8.0523,-2.926 11.892,-5.316 5.725,-3.561 5.6689,-3.478 8.9734,-13.379 4.42,-13.245 5.0504,-23.296 2.5107,-40.018 -0.4721,-3.107 -0.9532,-6.525 -1.0675,-7.594 l -0.2094,-1.944 0.909,2.828 c 0.5002,1.555 2.1579,7.124 3.6824,12.375 1.5255,5.251 3.4979,11.343 4.385,13.537 2.7272,6.748 5.8382,10.808 9.7451,12.721 1.7219,0.843 2.4736,0.967 7.0721,1.168 2.8294,0.124 5.5927,0.408 6.1399,0.631 1.8663,0.762 2.3934,0.507 5.737,-2.771 3.5611,-3.492 5.3021,-4.49 9.8855,-5.662 3.958,-1.013 5.2169,-0.947 6.2903,0.329 0.8539,1.016 0.876,1.194 1.0574,8.751 0.1022,4.243 0.3037,8.113 0.449,8.599 0.1453,0.486 0.1624,0.793 0.04,0.68 -0.2836,-0.254 -1.8853,-7.982 -2.193,-10.581 -0.1263,-1.069 -0.3849,-2.562 -0.5753,-3.316 l -0.3448,-1.372 -2.1839,0.185 c -2.4837,0.212 -5.263,1.082 -6.6922,2.095 -1.1687,0.828 -1.2449,1.955 -0.424,6.282 1.6477,8.683 5.6448,16.779 11.3628,23.017 2.3784,2.593 2.0046,2.384 -2.0717,-1.161 -4.6516,-4.045 -9.5427,-11.334 -12.0975,-18.023 -0.467,-1.224 -1.0313,-2.689 -1.2538,-3.256 l -0.4029,-1.028 -1.2248,1.187 c -1.0805,1.046 -1.2248,1.398 -1.2218,2.974 0,3.502 2.0607,10.337 4.6857,15.576 1.771,3.535 3.5781,6.211 5.9304,8.785 1.9865,2.174 1.9926,2.413 0.03,1.224 -4.2857,-2.599 -8.9102,-6.819 -12.0364,-10.981 -0.8389,-1.119 -1.6006,-2.033 -1.6908,-2.033 -0.2706,0 2.3293,4.565 4.3389,7.619 1.0293,1.566 3.116,4.27 4.6375,6.011 2.2431,2.568 2.5307,3.018 1.5275,2.387 -4.7558,-2.985 -11.3959,-9.069 -15.7097,-14.392 -3.1732,-3.916 -5.8954,-8.21 -8.7449,-13.792 -2.5428,-4.981 -3.3556,-5.867 -5.3872,-5.865 -2.5769,0 -6.6932,3.138 -8.2227,6.265 -0.8309,1.698 -0.9662,2.402 -0.9361,4.843 0.06,4.609 2.3012,10.477 6.0096,15.724 2.2191,3.139 8.1245,8.935 11.6806,11.465 2.655,1.888 9.5948,5.66 13.0005,7.063 l 1.4142,0.584 -1.2368,-0.204 c -2.3123,-0.382 -11.6725,-3.621 -14.956,-5.177 -7.2484,-3.434 -11.7256,-7.29 -16.307,-14.046 -1.5175,-2.236 -3.1782,-4.423 -3.6924,-4.86 -1.9053,-1.619 -4.398,-0.786 -6.7203,2.244 -3.8998,5.093 -4.3218,13.289 -1.0423,20.232 1.3099,2.774 4.9231,6.678 7.7947,8.423 5.4814,3.329 14.2974,5.703 23.4312,6.31 3.7515,0.248 6.3013,0.541 6.1319,0.703 -0.1654,0.16 -10.2753,0.827 -18.8608,1.245 -3.8889,0.191 -8.0904,0.59 -9.3362,0.889 -7.925,1.903 -12.3721,7.948 -13.4556,18.294 -0.6014,5.74 0.7327,12.811 3.1321,16.593 3.0469,4.803 5.713,2.745 11.5292,-8.903 4.6786,-9.366 10.0057,-14.608 18.0079,-17.715 3.1772,-1.233 7.055,-2.093 9.3282,-2.067 l 1.6558,0.02 -1.9445,0.63 c -11.7226,3.794 -21.0317,17.247 -21.8155,31.523 -0.417,7.592 1.6257,13.11 6.0327,16.303 2.4997,1.811 5.0445,1.143 6.9398,-1.82 0.5592,-0.876 2.1418,-4.1 3.5159,-7.166 3.5912,-8.012 6.1831,-12.425 10.1651,-17.304 2.3394,-2.868 7.8208,-8.133 10.2152,-9.813 1.5636,-1.098 1.4052,-0.865 -1.5425,2.265 -3.8988,4.139 -6.5007,7.935 -8.8791,12.954 -2.3273,4.912 -3.8167,9.524 -4.6506,14.403 -0.7407,4.329 -0.9201,10.133 -0.3247,10.501 0.6845,0.423 3.527,-1.308 5.1426,-3.132 2.7593,-3.118 3.4178,-4.828 4.5795,-11.901 1.4152,-8.621 3.0399,-12.096 7.935,-16.973 1.8542,-1.847 3.9289,-3.665 4.6094,-4.04 l 1.2369,-0.682 -1.5095,1.654 c -6.3544,6.959 -9.3472,16.482 -7.6864,24.46 0.8379,4.025 5.1376,11.955 6.0096,11.083 0.3909,-0.391 0.888,-4.094 0.889,-6.623 0,-6.181 1.0554,-13.949 2.5679,-18.956 l 0.7477,-2.476 0.469,3.843 c 0.2576,2.113 1.0444,6.091 1.747,8.839 1.4453,5.65 1.9544,11.507 1.1987,13.797 -0.9411,2.852 -3.6733,4.79 -6.7724,4.805 -2.0025,0.01 -2.9877,-0.699 -4.9091,-3.528 -3.0399,-4.476 -4.0442,-4.558 -7.92,-0.65 -3.2213,3.247 -4.8751,4.167 -7.5091,4.178 -1.9253,0 -5.1897,1.407 -5.8943,2.526 -0.2727,0.433 0.03,1.463 1.2608,4.242 3.4509,7.81 4.9172,14.093 4.9843,21.35 0.05,5.902 -0.3417,9.112 -2.1088,17.07 -0.6595,2.97 -1.2177,5.755 -1.2408,6.187 -0.02,0.433 -0.2566,-0.328 -0.5212,-1.689 -0.6414,-3.309 -2.6139,-11.49 -2.9837,-12.375 -0.1784,-0.428 -0.3037,1.248 -0.3168,4.242 -0.02,4.553 0.2065,7.124 0.874,9.901 0.447,1.861 -5.5045,-8.292 -7.9691,-13.596 -1.3069,-2.81 -2.5448,-5.166 -2.7522,-5.235 -0.5803,-0.193 -0.1423,5.566 0.6625,8.712 1.1376,4.449 3.2905,8.488 6.3103,11.842 1.6407,1.822 1.0735,1.589 -2.8003,-1.146 -3.9781,-2.809 -6.2703,-5.26 -10.9168,-11.665 -2.0136,-2.776 -3.7335,-4.973 -3.8237,-4.883 -0.3819,0.383 1.3841,6.442 2.5658,8.803 2.623,5.238 6.2522,9.157 11.3708,12.283 1.0203,0.623 1.8562,1.185 1.8562,1.248 0,0.235 -3.7805,-0.811 -5.6578,-1.565 -2.9447,-1.183 -8.0202,-3.921 -12.9574,-6.991 -6.583,-4.092 -10.5179,-8.607 -11.854,-13.598 -0.3818,-1.427 -0.9822,-3.231 -1.333,-4.009 -1.6367,-3.623 -4.6776,-6.295 -7.6784,-6.745 -1.3842,-0.208 -1.5305,-0.317 -1.3241,-0.988 0.7918,-2.57 1.6087,-3.262 5.27,-4.46 3.1131,-1.018 4.1084,-1.522 5.6088,-2.84 l 1.1997,-1.054 0.7347,1.707 c 0.4029,0.939 2.0937,5.395 3.7565,9.9 2.5478,6.903 3.6703,10.918 3.7204,13.299 0,0.183 -1.0744,-0.818 -2.3964,-2.226 -1.764,-1.88 -2.5628,-2.499 -3.0048,-2.329 -0.8149,0.312 -0.7588,0.968 0.1523,1.78 0.415,0.371 1.6147,1.748 2.6661,3.061 2.1208,2.646 2.8394,2.899 4.0141,1.414 1.0233,-1.294 0.7948,-3.211 -1.0193,-8.575 -1.4684,-4.343 -6.6351,-18.153 -7.1743,-19.178 -0.2125,-0.403 -0.1243,-1.378 0.2546,-2.829 0.5592,-2.142 0.5392,-5.288 -0.05,-7.248 -0.2355,-0.788 -0.2245,-0.787 2.19,0.225 5.1808,2.171 7.2395,3.313 8.2658,4.584 0.5723,0.707 2.4345,3.116 4.1384,5.353 3.2895,4.317 14.2865,15.7 16.3642,16.938 1.7239,1.028 2.9627,0.954 3.8988,-0.231 1.1607,-1.471 0.852,-4.231 -0.8629,-7.701 -1.6959,-3.43 -3.5802,-5.38 -5.4985,-5.686 -0.7758,-0.125 -1.6939,-0.444 -2.0376,-0.713 -0.5944,-0.461 -0.5894,-0.518 0.1072,-1.112 0.4039,-0.343 1.0213,-1.062 1.3711,-1.596 1.309,-1.999 -0.2385,-6.882 -4.7127,-14.87 -1.325,-2.364 -2.9377,-5.254 -3.5831,-6.421 -1.5205,-2.749 -2.4045,-3.712 -3.4078,-3.712 -1.0814,0 -1.4012,0.692 -3.8116,8.251 -1.3261,4.158 -2.1539,6.248 -2.4326,6.138 -0.2315,-0.09 -3.102,-1.313 -6.3775,-2.712 -6.3474,-2.712 -7.1753,-2.841 -8.1956,-1.283 -0.5061,0.771 -0.4811,1.014 0.3238,3.151 1.2668,3.366 1.4493,5.124 0.7707,7.456 -0.8028,2.764 -2.2862,4.142 -5.6899,5.287 -5.2249,1.757 -6.6852,3.134 -8.3009,7.827 -1.3801,4.015 -0.7296,5.131 2.9948,5.134 2.9427,0 5.0184,1.316 6.4858,4.106 0.4019,0.764 2.5738,8.004 2.4375,8.127 -0.04,0.04 -1.6688,-0.468 -3.6182,-1.121 -9.7041,-3.253 -18.9641,-1.66 -21.7284,3.737 -2.1509,4.199 -1.4182,8.969 1.9515,12.699 0.6725,0.743 1.2217,1.494 1.2217,1.669 0,0.173 -0.8349,0.513 -1.8562,0.755 -2.4235,0.576 -5.3131,2.054 -7.053,3.608 l -1.3922,1.246 -1.9454,-1.849 c -1.0784,-1.025 -3.1211,-2.43 -4.5834,-3.153 -6.1079,-3.019 -12.8863,-1.603 -17.9297,3.745 -3.8207,4.052 -6.147,9.657 -7.1342,17.19 -0.9422,7.181 -0.6976,10.684 1.6437,23.628 1.4623,8.078 1.4633,8.096 0.8068,9.316 -0.7447,1.382 -2.9958,3.061 -5.0996,3.804 -1.35,0.476 -1.4342,0.463 -1.8201,-0.28 -0.2225,-0.428 -0.453,-0.835 -0.5122,-0.904 -0.06,-0.07 -0.6003,0.437 -1.2037,1.124 -1.1767,1.34 -2.6179,1.798 -8.6005,2.738 -2.6921,0.422 -2.7733,0.414 -3.3115,-0.356 l -0.5523,-0.788 -1.1085,1.044 c -1.5546,1.465 -4.0843,2.236 -8.0533,2.454 -3.3837,0.187 -3.4148,0.181 -4.0212,-0.744 l -0.6113,-0.933 -0.5753,1.127 c -0.7938,1.555 -2.0096,2.345 -4.2487,2.765 -2.4876,0.466 -4.7648,0.418 -6.8626,-0.146 z m -17.9688,-1.273 c -1.8703,-0.142 -3.959,-0.444 -4.6426,-0.669 -3.4288,-1.132 -3.6523,-3.917 -1.4934,-18.661 0.9292,-6.35 1.3521,-7.473 4.1284,-10.977 3.1271,-3.945 4.3269,-4.425 6.1971,-2.479 1.755,1.826 4.9352,7.172 5.3612,9.012 0.7136,3.085 1.4443,10.824 1.4443,15.297 0,3.926 -0.1003,4.623 -0.851,6.247 -0.469,1.006 -1.1726,2.001 -1.5645,2.21 -0.7778,0.416 -3.3045,0.422 -8.5795,0.02 z m 191.3276,-10.61 c -3.2985,-0.684 -6.6872,-2.744 -10.118,-6.149 -4.9161,-4.878 -7.7385,-9.666 -10.568,-17.926 -2.1398,-6.248 -3.0569,-10.87 -2.9286,-14.752 l 0.1022,-3.061 2.1559,4.449 c 2.5839,5.33 4.5594,8.329 6.4998,9.865 1.2388,0.982 6.599,3.541 7.4148,3.541 0.1534,0 -1.0193,-1.313 -2.6079,-2.916 -1.5886,-1.605 -3.511,-3.871 -4.2727,-5.036 -1.8312,-2.8 -5.9305,-10.806 -5.6679,-11.069 0.1133,-0.113 0.4721,0.182 0.7968,0.657 1.1476,1.679 5.5536,6.011 7.1623,7.044 2.7974,1.795 4.406,2.194 10.0869,2.505 2.9176,0.16 5.702,0.387 6.1881,0.506 1.8532,0.45 -1.8593,-1.291 -5.6398,-2.645 -4.7198,-1.691 -6.6491,-2.654 -9.3874,-4.689 -2.1278,-1.581 -7.0279,-6.076 -6.3644,-5.838 0.1944,0.07 1.5735,0.713 3.0649,1.432 7.6033,3.659 13.9026,3.037 19.5444,-1.929 0.9031,-0.795 1.5927,-1.494 1.5335,-1.553 -0.06,-0.06 -1.6177,0.291 -3.4628,0.778 -4.0723,1.074 -8.0594,1.41 -10.5069,0.885 -1.0023,-0.215 -3.4318,-0.986 -5.3993,-1.714 l -3.5781,-1.323 3.8217,-0.613 c 4.2927,-0.689 7.8548,-1.735 16.4433,-4.831 8.2157,-2.962 12.2819,-3.938 17.4567,-4.193 4.6896,-0.231 6.8556,0.105 9.9346,1.539 4.2165,1.964 6.2251,5.462 6.2762,10.929 0.03,3.012 -0.03,3.29 -0.9882,4.546 -1.3281,1.744 -4.0693,3.022 -8.8261,4.112 -2.0727,0.475 -3.7675,0.944 -3.7675,1.041 0,0.101 0.9942,0.468 2.209,0.825 3.548,1.04 8.6216,3.643 10.2222,5.242 1.4373,1.438 1.4463,1.462 1.2729,3.613 -0.3187,3.968 -3.8788,11.106 -6.578,13.188 -2.7542,2.125 -6.6922,2.263 -12.5926,0.44 -1.1586,-0.357 -2.1569,-0.599 -2.22,-0.537 -0.06,0.06 0.03,0.494 0.2025,0.958 1.5896,4.261 0.2335,8.153 -3.6153,10.374 -3.3566,1.938 -9.7391,3.045 -13.2992,2.305 z m 51.6885,-1.955 c -5.0405,-1.357 -9.0005,-5.812 -9.5337,-10.726 l -0.1764,-1.628 1.5515,1.635 c 2.4356,2.567 3.4438,2.962 7.5632,2.962 3.101,0 3.7856,-0.117 5.5697,-0.954 2.8454,-1.333 5.6047,-4.051 6.8495,-6.746 0.9181,-1.987 1.0163,-2.561 1.0083,-5.913 0,-4.259 -0.462,-5.937 -2.8635,-10.608 -2.0276,-3.944 -4.422,-7.101 -8.9644,-11.822 -4.0642,-4.222 -3.7224,-4.268 1.9124,-0.253 10.0017,7.127 16.9224,17.136 18.2003,26.323 0.7307,5.248 -0.6685,9.855 -4.0021,13.18 -4.2466,4.235 -11.3077,6.112 -17.1148,4.55 z m -126.1717,-4.743 c -2.5798,-0.552 -6.601,-2.432 -8.6496,-4.041 -1.9815,-1.559 -3.7566,-4.321 -3.3897,-5.276 0.1002,-0.251 3.7084,-2.803 8.0282,-5.672 4.3198,-2.869 7.7837,-5.287 7.6965,-5.373 -0.09,-0.09 -1.0183,0 -2.0707,0.208 -3.072,0.587 -10.565,1.405 -12.8743,1.405 -3.9259,0 -6.3855,-1.276 -8.4391,-4.376 -1.763,-2.661 -2.3804,-4.822 -2.3804,-8.327 0,-2.73 0.1142,-3.25 1.1666,-5.299 2.0296,-3.952 6.0788,-5.925 12.9234,-6.299 1.9935,-0.108 3.6242,-0.244 3.6242,-0.303 0,-0.06 -0.8168,-0.95 -1.8141,-1.982 -3.2714,-3.384 -6.0407,-6.746 -6.5379,-7.935 -0.6825,-1.634 -0.6104,-4.325 0.1554,-5.792 1.3962,-2.678 6.4085,-4.011 11.9331,-3.174 5.6779,0.861 11.6344,3.518 20.8373,9.298 9.6169,6.039 13.7042,8.068 18.3467,9.107 1.0935,0.245 1.9344,0.499 1.8673,0.567 -0.2246,0.224 -8.1345,1.179 -9.7753,1.179 -2.221,0 -5.2459,-0.833 -8.9363,-2.459 -1.7008,-0.75 -3.093,-1.203 -3.093,-1.007 0,0.196 1.0995,1.457 2.4436,2.801 4.7588,4.759 9.6288,5.835 17.3845,3.84 1.4282,-0.367 2.65,-0.615 2.7151,-0.55 0.1885,0.188 -6.2722,3.869 -8.3239,4.742 -3.0669,1.305 -6.8385,1.692 -10.9168,1.118 -5.0013,-0.705 -7.1312,-0.595 -9.5026,0.492 -1.8712,0.856 -5.1056,3.177 -3.524,2.528 1.4553,-0.597 4.2587,-1.251 5.3622,-1.251 0.6274,0 3.3376,0.578 6.0217,1.285 9.4705,2.495 14.1712,1.441 21.3064,-4.777 2.6119,-2.277 2.5658,-2.143 -0.8409,2.431 -3.3727,4.527 -8.2437,9.527 -11.0902,11.381 -2.656,1.731 -2.3624,2.057 1.0624,1.18 3.1441,-0.805 5.4955,-1.975 7.4309,-3.697 1.8813,-1.674 6.2552,-7.334 7.2043,-9.325 0.8179,-1.715 1.2008,-1.653 1.1958,0.196 -0.01,3.997 -1.7219,7.326 -6.5369,12.722 -7.914,8.869 -19.9653,16.996 -28.9939,19.554 -3.4869,0.988 -8.6065,1.397 -11.016,0.881 z m 114.8429,-27.259 c -0.458,-0.183 -1.2999,-0.667 -1.8712,-1.074 l -1.0394,-0.74 1.5686,-1.677 c 2.0256,-2.166 2.5959,-3.311 3.0429,-6.11 0.447,-2.794 0.01,-6.741 -1.0594,-9.602 -1.0945,-2.927 -3.8267,-5.724 -7.475,-7.65 -3.8969,-2.058 -9.2931,-7.38 -11.5512,-11.392 -3.0329,-5.386 -5.6138,-13.747 -6.4828,-21 l -0.461,-3.845 -0.2205,2.652 c -0.4059,4.879 -0.3037,13.529 0.1924,16.265 0.9452,5.211 3.1863,9.457 6.9177,13.108 l 2.0316,1.989 -3.5781,0.396 c -5.2549,0.581 -10.0588,1.908 -20.0205,5.531 -6.3223,2.301 -12.335,3.97 -15.3809,4.273 l -2.1208,0.211 4.0321,-1.999 c 3.4779,-1.725 4.4261,-2.395 6.9027,-4.887 1.9715,-1.983 3.2945,-3.7 4.2206,-5.476 1.3751,-2.637 2.8725,-7.136 2.3754,-7.136 -0.3127,0 -3.1171,2.931 -6.164,6.44 -1.1326,1.305 -3.2053,3.251 -4.6065,4.324 -2.4666,1.889 -7.8308,5.147 -8.4752,5.147 -0.1734,0 0.6685,-0.994 1.8732,-2.21 2.7874,-2.812 5.0194,-6.393 6.2152,-9.972 0.9882,-2.955 1.5475,-6.567 1.0123,-6.543 -0.1724,0 -1.0234,1.152 -1.8903,2.545 -1.305,2.096 -8.5134,11.961 -9.6259,13.175 -0.1784,0.194 0.08,-0.726 0.5783,-2.044 1.2529,-3.329 2.5799,-10.298 3.0269,-15.896 0.5853,-7.338 -0.2696,-14.192 -2.631,-21.075 l -0.891,-2.597 1.0243,-1.293 c 0.5623,-0.711 1.2007,-1.968 1.4172,-2.795 0.3208,-1.221 0.5483,-1.503 1.2128,-1.503 1.0113,0 3.3135,-1.606 5.8773,-4.102 l 1.9495,-1.897 2.0576,2.3 c 3.2825,3.67 6.2993,4.699 10.3485,3.53 2.6942,-0.778 4.0512,-1.619 6.8245,-4.234 1.2479,-1.176 2.186,-1.899 2.0848,-1.607 -0.1002,0.291 -0.5302,1.583 -0.9552,2.871 -1.9133,5.796 -5.4975,11.511 -13.3854,21.338 -5.1146,6.373 -7.5141,10.147 -7.5141,11.818 0,0.409 0.1574,0.744 0.3508,0.744 0.7818,0 9.8394,-12.128 15.0212,-20.112 4.3979,-6.779 7.7055,-14.072 8.4842,-18.711 l 0.2556,-1.519 1.4683,1.259 c 5.4454,4.674 11.2546,7.269 16.248,7.257 6.0988,-0.01 10.7424,-3.382 12.8481,-9.317 0.8009,-2.255 1.2238,-6.508 0.868,-8.711 -0.1734,-1.069 -0.2636,-1.998 -0.2024,-2.063 0.06,-0.07 1.0744,0.233 2.2511,0.662 5.4734,1.995 10.4758,-0.6 12.786,-6.632 1.0925,-2.852 1.3571,-8.389 0.5362,-11.212 -0.3267,-1.125 -0.5452,-2.095 -0.4851,-2.155 0.06,-0.06 0.8249,0.03 1.7009,0.2 5.9365,1.147 13.4155,-0.608 17.9438,-4.212 1.0213,-0.812 1.8562,-1.293 1.8562,-1.067 0,0.837 3.1461,7.013 4.5062,8.846 2.5067,3.379 6.9388,7.068 10.8747,9.053 2.3594,1.191 6.5319,2.578 10.0769,3.352 5.9455,1.298 17.17,0.993 21.9218,-0.593 0.9702,-0.325 1.1777,-0.464 0.5302,-0.36 -0.5833,0.1 -3.0108,0.363 -5.3942,0.595 -5.1608,0.504 -12.4323,0.02 -16.8233,-1.11 -3.6162,-0.934 -9.4334,-3.414 -12.0914,-5.153 -4.7588,-3.113 -9.2611,-8.673 -11.5082,-14.211 l -0.7898,-1.946 0.9893,-1.996 c 1.313,-2.648 1.5926,-6.224 0.7066,-9.041 -0.3438,-1.094 -0.5633,-2.051 -0.4861,-2.127 0.08,-0.08 0.9932,-0.184 2.0366,-0.239 l 1.8973,-0.1 1.4924,3.694 c 4.7749,11.819 11.1293,19.47 19.374,23.328 3.956,1.851 7.3437,2.553 12.4653,2.581 5.2289,0.03 7.6474,-0.466 11.7547,-2.406 6.163,-2.91 9.229,-8.703 9.3894,-17.74 0.04,-2.169 0.1844,-3.873 0.3247,-3.787 0.1393,0.09 0.6916,1.462 1.2268,3.058 0.887,2.651 0.9702,3.35 0.9542,8.03 -0.02,6.123 -0.6736,8.991 -3.2083,14.11 -1.302,2.629 -2.208,3.888 -4.3258,6.01 -5.6118,5.624 -11.8269,7.79 -21.0659,7.342 -11.87,-0.575 -24.4866,-5.956 -31.5968,-13.476 -1.0423,-1.102 -1.9324,-1.955 -1.9785,-1.896 -0.1904,0.246 -0.899,4.361 -0.899,5.218 0,0.695 0.5081,1.349 2.0326,2.622 3.7345,3.115 12.2057,11.321 15.3799,14.898 8.5535,9.636 12.3812,18.348 12.4303,28.286 0.04,7.917 -2.7262,12.553 -7.488,12.553 -0.7477,0 -1.6678,-0.25 -2.0447,-0.555 -0.6615,-0.534 -0.6535,-0.548 0.2185,-0.363 1.5305,0.321 3.4048,-0.425 4.5504,-1.816 4.7357,-5.745 2.204,-18.996 -5.5907,-29.266 -2.6872,-3.539 -4.8541,-5.668 -12.4173,-12.191 -3.986,-3.439 -7.4659,-6.518 -7.7335,-6.842 -0.2666,-0.325 -0.6194,-0.591 -0.7838,-0.591 -0.1644,0 -0.7226,1.393 -1.2408,3.094 -0.5182,1.702 -2.0958,5.966 -3.505,9.476 -2.628,6.545 -4.5283,12.11 -7.4178,21.728 -2.2602,7.524 -4.4381,14.265 -6.158,19.065 -0.7958,2.22 -1.4473,4.089 -1.4473,4.154 0,0.06 1.3921,0.116 3.094,0.115 3.7395,0 9.244,-0.789 12.7289,-1.819 l 2.5639,-0.757 v -1.451 c 0.02,-3.024 2.1939,-5.875 5.4303,-7.111 2.4646,-0.941 6.5589,-0.616 9.0034,0.714 5.5256,3.007 8.0483,10.178 6.0909,17.314 -1.1486,4.186 -2.624,6.696 -5.8453,9.942 -4.851,4.888 -10.8085,7.214 -18.471,7.214 -6.8395,0 -11.9792,-1.462 -20.6188,-5.868 -2.8234,-1.441 -5.2439,-2.618 -5.3782,-2.618 -0.5813,0 -1.736,5.083 -2.0848,9.172 -0.5522,6.478 -0.92,8.111 -2.0897,9.28 -0.7948,0.795 -1.301,0.991 -2.5247,0.973 -0.8409,-0.01 -1.9044,-0.173 -2.3624,-0.356 z m 30.5334,-25.958 c 7.6564,-1.254 14.2724,-4.048 17.3885,-7.344 2.2651,-2.395 2.9868,-4.377 2.0917,-5.744 -0.5602,-0.856 -2.2381,-1.802 -2.5828,-1.458 -0.08,0.08 0.01,0.744 0.2084,1.465 0.5152,1.866 0.1524,3.127 -1.4102,4.903 -3.8577,4.382 -14.9189,7.17 -24.8003,6.251 -5.1677,-0.482 -6.8746,-0.996 -12.4633,-3.755 -15.0472,-7.43 -25.5631,-19.605 -30.9634,-35.85 -1.5535,-4.675 -1.792,-4.389 -0.5211,0.623 3.9068,15.416 11.1643,25.858 23.7058,34.11 4.5333,2.982 10.2954,5.8 13.9667,6.829 2.2431,0.629 11.4651,0.611 15.38,-0.03 z m -63.9162,-15.446 c -0.7618,-2.999 1.0854,-12.636 3.8156,-19.908 0.6545,-1.745 1.1416,-3.222 1.0825,-3.281 -0.2045,-0.204 -4.4271,8.577 -5.2289,10.873 -1.0514,3.014 -1.1746,10.335 -0.2105,12.463 0.7888,1.742 1.0053,1.683 0.5413,-0.147 z m 39.3193,-6.369 c 2.0958,-0.999 5.3702,-4.384 8.1024,-8.372 1.1957,-1.747 2.1749,-3.258 2.1749,-3.358 0,-0.1 -0.8559,0.673 -1.9013,1.72 -2.3082,2.308 -5.6598,4.524 -8.0382,5.314 -2.5578,0.849 -6.14,0.789 -8.2377,-0.14 -4.398,-1.945 -9.3984,-6.89 -12.9615,-12.819 -2.1769,-3.621 -2.2551,-3.232 -0.1423,0.704 2.8565,5.319 8.1705,12.336 11.4801,15.156 3.112,2.652 6.4216,3.276 9.5236,1.795 z m -74.2266,38.748 c -1.763,-0.764 -2.8034,-1.833 -3.7576,-3.856 -1.3841,-2.935 -1.0052,-5.75 1.1056,-8.217 4.3869,-5.124 13.0396,-2.009 12.9794,4.674 -0.05,5.605 -5.4844,9.499 -10.3274,7.399 z m -196.6919,-2.029 c -0.1403,-0.356 -0.2565,-1.231 -0.2585,-1.945 -0.01,-3.041 -1.8342,-7.583 -4.2968,-10.697 -1.341,-1.697 -1.3821,-1.819 -0.7677,-2.284 0.3568,-0.271 0.7547,-0.497 0.884,-0.503 0.1293,0 0.8719,-0.812 1.6517,-1.79 0.7788,-0.98 1.4974,-1.649 1.5956,-1.489 0.857,1.386 2.1068,16.066 1.5887,18.649 -0.1334,0.663 -0.1584,0.666 -0.397,0.06 z m 2.8235,-7.871 c -1.2509,-6.532 -2.0176,-11.216 -2.0176,-12.322 0,-0.918 0.6444,-0.645 3.7244,1.579 4.4391,3.205 6.9779,4.274 10.6933,4.506 3.5601,0.222 3.2464,0.471 -1.6808,1.33 -6.168,1.076 -7.5912,2.462 -8.8351,8.605 l -0.6043,2.986 z m 11.039,-9.508 c -1.1586,-0.374 -2.6129,-1.438 -5.1266,-3.752 -1.9304,-1.777 -3.4779,-3.411 -3.4378,-3.631 0.04,-0.221 0.4149,-1.357 0.8329,-2.523 0.9682,-2.699 0.7717,-5.008 -0.7718,-9.07 -0.6164,-1.623 -1.5595,-4.2 -2.0957,-5.726 -1.734,-4.934 -1.7169,-0.391 0.02,5.603 0.3949,1.361 0.8048,3.588 0.9121,4.95 0.2536,3.236 -0.3869,4.534 -2.9617,6.004 -1.0965,0.626 -2.2502,1.653 -2.7894,2.481 -2.4345,3.745 -4.413,4.931 -8.2457,4.943 -2.0407,0 -2.9347,-0.158 -3.8768,-0.712 -2.1389,-1.257 -2.5759,-2.473 -2.8375,-7.9 -0.2155,-4.462 -0.3297,-5.061 -1.5625,-8.155 -1.3471,-3.383 -2.1068,-6.698 -1.748,-7.631 0.1233,-0.323 -0.1213,-0.633 -0.6665,-0.84 -0.4751,-0.18 -1.2809,-0.824 -1.7901,-1.43 -1.9644,-2.334 -2.1338,-5.645 -0.6394,-12.486 1.4132,-6.465 1.3721,-6.14 1.9815,-15.809 0.6875,-10.904 0.9932,-12.145 3.6182,-14.694 l 1.318,-1.279 0.06,-3.246 c 0.07,-3.863 1.1998,-8.058 3.2775,-12.183 2.635,-5.229 5.8382,-7.794 9.235,-7.391 3.8878,0.46 6.3033,2.616 9.9636,8.889 3.7746,6.472 4.8821,7.918 8.2868,10.826 4.2166,3.599 6.1971,6.126 8.4292,10.758 2.9857,6.191 4.4781,11.394 5.9846,20.861 1.1075,6.956 1.5485,8.437 3.5801,12.022 3.4538,6.095 4.2286,7.975 4.2276,10.254 0,2.441 -0.3859,3.516 -2.6641,7.425 -0.907,1.555 -2.5548,4.693 -3.6623,6.973 -2.4475,5.041 -3.518,6.088 -6.5438,6.404 -5.3632,0.56 -8.7078,0.583 -10.3075,0.07 z m 182.6239,-19.475 c -3.6262,-2.413 -11.8088,-11.376 -17.0267,-18.648 l -2.4866,-3.466 1.2017,-2.369 c 0.6605,-1.301 1.746,-4.493 2.4135,-7.092 0.6665,-2.598 1.2669,-4.778 1.333,-4.846 0.1373,-0.136 4.8611,7.666 6.7574,11.162 1.7289,3.188 2.7041,5.807 2.7683,7.434 0.05,1.163 -0.1754,1.627 -1.4183,2.975 -1.6036,1.74 -1.6537,1.886 -1.0874,3.128 0.5262,1.155 2.1128,2.02 3.7034,2.02 1.0834,0 1.5685,0.255 2.647,1.389 1.8923,1.99 3.3175,5.081 3.3316,7.225 0,0.962 -0.1594,1.808 -0.3689,1.88 -0.2084,0.07 -1.0043,-0.285 -1.768,-0.792 z m -83.7833,-17.613 c -7.1473,-5.462 -22.1062,-9.836 -28.3885,-8.302 -1.2017,0.294 -2.185,0.429 -2.185,0.301 0,-0.56 3.0379,-2.601 4.7869,-3.215 2.3413,-0.823 6.144,-0.875 9.3563,-0.128 4.844,1.127 11.5442,5.331 16.2429,10.192 1.7279,1.789 1.8291,2.407 0.1874,1.152 z m 138.7462,-14.685 c -6.2352,-1.995 -14.1762,-9.814 -17.8837,-17.608 -2.6289,-5.529 -3.2423,-10.832 -1.8712,-16.192 0.7026,-2.745 2.2401,-6.541 2.65,-6.541 0.5352,0 2.211,1.09 3.077,2.002 1.9073,2.008 2.1669,3.233 2.199,10.373 0.02,4.051 0.1764,6.791 0.4169,7.196 0.4501,0.759 0.9723,-5.935 1.0063,-12.908 0.01,-2.267 0.1013,-4.071 0.1995,-4.011 0.3939,0.245 2.8885,5.869 4.0772,9.193 1.1908,3.33 5.0806,11.642 5.3302,11.393 0.06,-0.06 -0.5052,-1.698 -1.2629,-3.632 -1.4002,-3.578 -2.9698,-9.299 -3.3416,-12.181 -0.1944,-1.512 -0.1133,-1.415 1.6497,1.959 1.8312,3.507 3.949,6.686 5.0786,7.623 0.3708,0.307 0.1954,-0.285 -0.4821,-1.633 -0.9853,-1.959 -3.6263,-8.674 -3.6263,-9.219 0,-0.131 0.3448,0.22 0.7668,0.781 1.9103,2.542 6.4396,6.501 7.4389,6.501 0.1914,0 -0.2205,-0.756 -0.9161,-1.68 -1.2619,-1.676 -3.7535,-5.64 -3.7535,-5.972 0,-0.1 0.9562,0.577 2.1258,1.496 1.1687,0.918 2.193,1.6 2.2772,1.517 0.08,-0.08 -0.1594,-0.848 -0.5412,-1.699 -0.3809,-0.851 -0.6205,-1.618 -0.5343,-1.705 0.09,-0.09 0.846,0.314 1.6859,0.892 1.7991,1.237 8.0823,5.029 8.3329,5.029 0.09,0 -1.2979,-1.54 -3.097,-3.421 -1.7981,-1.881 -3.951,-4.347 -4.7849,-5.478 -1.6016,-2.176 -2.9116,-5.087 -2.4816,-5.516 0.1403,-0.141 0.8158,0.379 1.5004,1.157 4.6766,5.312 5.3652,5.827 8.7759,6.56 1.1667,0.25 2.9768,0.825 4.0211,1.277 1.3852,0.601 1.7751,0.674 1.4423,0.273 -0.7587,-0.915 -3.3817,-2.301 -5.6568,-2.99 -1.1807,-0.358 -2.6641,-1.044 -3.2965,-1.527 -1.5816,-1.207 -3.3917,-4.723 -3.6202,-7.032 -0.1534,-1.559 -0.1133,-1.75 0.2405,-1.159 1.3491,2.246 3.504,4.593 5.3502,5.825 2.4575,1.641 7.6523,3.41 11.027,3.757 2.2221,0.228 2.3373,0.285 2.3413,1.163 0,0.508 0.411,1.798 0.9101,2.868 2.5408,5.451 2.4546,11.183 -0.2105,13.848 -1.306,1.306 -3.3346,1.337 -6.618,0.1 -4.9372,-1.859 -7.018,-1.803 -8.0623,0.215 -0.6906,1.336 -0.6585,2.127 0.2325,5.649 1.6788,6.64 -0.2887,12.575 -4.5644,13.762 -1.9674,0.547 -5.307,0.411 -7.5481,-0.305 z m -151.5984,-0.785 c -6.4266,-1.067 -9.5237,-5.966 -3.7716,-5.966 0.6535,0 3.2283,0.399 5.722,0.886 5.8563,1.146 11.9882,1.712 15.3328,1.417 6.0438,-0.536 12.2699,-2.457 14.6654,-4.528 l 1.3119,-1.133 -4.5413,-0.01 c -4.7939,-0.01 -7.1733,-0.593 -9.8453,-2.393 -0.9201,-0.619 -0.873,-0.517 0.3538,0.779 1.2267,1.295 3.6082,2.679 7.2484,4.213 1.4243,0.599 -3.4518,0.517 -7.4148,-0.127 -7.7135,-1.25 -15.1685,-4.795 -20.2169,-9.609 -3.5992,-3.433 -5.4534,-7.382 -5.1948,-11.068 0.07,-0.98 -0.01,-1.591 -0.1875,-1.416 -0.1694,0.17 -0.3848,1.713 -0.4781,3.43 -0.3077,5.634 1.6087,10.847 5.4214,14.751 1.0644,1.091 1.8441,1.984 1.7319,1.984 -0.5192,0 -3.7816,-1.876 -6.0698,-3.491 -3.3927,-2.394 -8.7218,-7.511 -10.4086,-9.996 -2.1148,-3.114 -2.8535,-5.315 -3.066,-9.13 -0.2325,-4.17 -0.7527,-3.287 -1.0434,1.769 -0.3267,5.683 1.2338,11.672 3.8017,14.59 0.7717,0.876 1.4021,1.706 1.4021,1.844 0,0.341 -1.7118,-0.768 -2.9487,-1.908 -2.5227,-2.326 -4.1674,-8.032 -5.3631,-18.606 -0.7337,-6.482 -1.4243,-10.228 -2.5338,-13.745 -1.0063,-3.189 -3.1612,-7.7 -4.3288,-9.06 l -0.7587,-0.884 0.6013,1.414 c 2.5899,6.088 3.516,10.623 4.2216,20.684 0.6425,9.176 1.4904,13.806 3.1221,17.049 l 1.1947,2.377 -1.1115,-0.564 c -3.976,-2.019 -8.5865,-6.421 -11.2867,-10.776 -2.2551,-3.637 -3.1511,-6.509 -3.1702,-10.16 -0.02,-4.578 -0.7336,-2.538 -0.909,2.616 -0.2225,6.506 0.903,10.127 4.3038,13.85 1.0002,1.095 1.5004,1.82 1.1115,1.609 -2.644,-1.427 -11.5242,-12.009 -13.7021,-16.328 -1.4754,-2.926 -1.5015,-3.042 -1.5015,-6.601 0,-3.872 -0.2305,-4.061 -0.8509,-0.698 -0.8489,4.602 -0.1784,10.933 1.5044,14.221 0.4821,0.943 1.5435,2.401 2.3574,3.24 0.8138,0.84 1.4042,1.602 1.313,1.694 -0.4801,0.479 -3.508,-2.575 -5.4815,-5.529 -5.289,-7.917 -6.5388,-11.078 -6.588,-16.667 -0.02,-2.073 -0.07,-3.733 -0.1162,-3.688 -0.05,0.05 -0.3448,1.345 -0.6655,2.888 -0.8018,3.858 -0.4982,9.582 0.7136,13.435 0.8349,2.656 0.8439,2.758 0.1533,1.922 -1.1526,-1.399 -2.9597,-5.223 -3.9489,-8.362 -1.6357,-5.186 -2.1409,-8.932 -2.1629,-16.036 -0.01,-3.678 -0.1744,-6.796 -0.3729,-7.123 -0.1934,-0.321 -2.4205,-2.443 -4.9482,-4.715 -9.4345,-8.48 -14.7515,-10.972 -23.337,-10.938 -3.5832,0.01 -4.5704,0.147 -6.3555,0.844 -4.9432,1.936 -8.385,7.383 -9.4575,14.968 -0.3397,2.401 -0.3027,3.287 0.2536,6.114 0.8038,4.092 0.7938,4.132 -3.1481,12.081 -6.9438,14 -8.1105,16.997 -9.4265,24.204 l -0.8208,4.495 -2.3874,0.543 c -2.7102,0.616 -7.2265,0.716 -8.6096,0.191 -1.5175,-0.578 -0.6846,0.263 1.2148,1.225 0.9331,0.473 2.7702,1.058 4.0832,1.3 2.6741,0.492 2.3383,0.941 -0.7356,0.984 -4.375,0.06 -11.0461,-2.568 -14.4779,-5.705 -2.649,-2.421 -4.407,-5.09 -7.1583,-10.861 -2.8465,-5.972 -4.7809,-8.995 -7.6193,-11.903 -4.398,-4.507 -3.3807,-2.062 2.2361,5.375 2.6821,3.551 3.532,5.078 7.032,12.623 2.7953,6.027 7.1231,11.171 11.1212,13.218 1.0043,0.513 2.9397,1.305 4.3008,1.758 l 2.4756,0.823 -3.8898,-0.134 c -8.8541,-0.303 -16.8834,-4.912 -20.0937,-11.534 -1.4172,-2.922 -1.6517,-2.907 -0.6374,0.04 1.787,5.195 5.2279,10.052 9.254,13.067 1.1506,0.862 2.0958,1.681 2.0998,1.821 0.01,0.425 -7.7276,-2.452 -11.2616,-4.185 -4.1996,-2.058 -7.1212,-4.854 -9.0416,-8.648 -0.9802,-1.938 -1.2608,-2.301 -1.0734,-1.388 1.0875,5.278 4.8931,10.7 10.3605,14.761 1.4243,1.058 2.5278,1.985 2.4526,2.061 -0.1884,0.187 -4.1795,-0.99 -7.0099,-2.068 -3.2263,-1.229 -5.0485,-2.191 -8.0082,-4.229 -4.1304,-2.845 -6.3314,-5.637 -8.1275,-10.309 l -0.8298,-2.161 0.2205,2.109 c 0.4951,4.738 3.084,10.598 6.2562,14.162 1.1516,1.295 1.5826,1.98 1.1426,1.814 -1.8653,-0.696 -4.7318,-2.774 -7.1322,-5.17 -2.9477,-2.943 -4.8992,-6.452 -5.9165,-10.64 -1.0895,-4.481 -0.5703,-12.397 1.1807,-18.025 0.3859,-1.238 0.6445,-2.31 0.5743,-2.379 -0.07,-0.07 -1.0744,0.352 -2.2321,0.936 l -2.1057,1.064 -0.2486,-5.659 c -0.1373,-3.112 -0.4891,-7.041 -0.7818,-8.73 -0.2927,-1.69 -0.6515,-5.327 -0.7978,-8.082 -0.2405,-4.562 -0.3468,-5.134 -1.1807,-6.395 -0.5041,-0.761 -1.7219,-1.901 -2.7081,-2.534 -2.9177,-1.872 -4.1274,-4.508 -3.5321,-7.697 0.2155,-1.156 1.0424,-2.79 2.5789,-5.098 5.286,-7.941 7.4499,-14.234 10.992,-31.96 2.6801,-13.414 3.8026,-19.877 4.5734,-26.342 1.344,-11.266 1.7319,-13.931 2.8564,-19.624 3.517,-17.816 9.0707,-30.213 19.9584,-44.551 15.4912,-20.401 39.9808,-42.14 59.7056,-52.999 17.8466,-9.826 46.8384,-17.763 73.7806,-20.201 33.4791,-3.029 68.7402,0.06 97.1327,8.521 18.9921,5.658 33.1653,12.123 48.1614,21.968 10.7695,7.071 20.696,15.497 30.5715,25.951 2.5507,2.7 4.6375,4.736 4.6375,4.522 0,-0.718 -2.8846,-11.07 -4.1264,-14.811 -1.5104,-4.547 -3.7946,-9.46 -5.7049,-12.274 -3.2384,-4.769 -8.9323,-8.754 -14.5661,-10.195 -2.4907,-0.637 -6.7574,-0.833 -9.0165,-0.415 l -1.4142,0.261 1.0714,-0.484 c 1.7099,-0.772 5.4223,-1.291 9.244,-1.291 8.5063,0 15.848,3.743 20.3512,10.374 3.5872,5.283 5.9646,11.708 10.7204,28.973 1.6728,6.071 3.1662,11.436 3.3185,11.923 0.445,1.421 0.8449,-10.977 0.6325,-19.624 -0.2767,-11.259 -1.5776,-17.182 -5.1928,-23.631 l -1.6849,-3.004 1.5225,-0.384 c 7.7265,-1.946 13.3213,2.958 14.8357,13.005 0.9542,6.336 0.6114,12.569 -1.4353,26.052 -0.4801,3.162 -1.0153,7.634 -1.1897,9.938 -0.3147,4.148 -0.3087,4.204 0.6094,5.78 l 0.9271,1.592 0.2887,-2.652 c 0.1583,-1.459 1.0093,-7.346 1.8913,-13.083 1.8211,-11.859 2.2631,-18.765 1.5776,-24.648 -1.291,-11.067 -5.4655,-17.059 -12.323,-17.68 -1.9715,-0.179 -5.6709,0.551 -6.6241,1.306 -0.2075,0.164 -1.3951,-0.92 -2.8685,-2.617 -3.8718,-4.461 -9.4936,-8.356 -16.4013,-11.361 -1.6537,-0.719 -3.0679,-1.363 -3.1441,-1.431 -0.2295,-0.206 2.6671,-3.874 4.5333,-5.741 0.9652,-0.964 2.5979,-2.17 3.6292,-2.679 l 1.8763,-0.927 -1.5916,0.173 c -7.3006,0.796 -9.5287,0.938 -13.0817,0.838 l -4.0663,-0.115 1.2649,-1.237 c 0.6956,-0.682 2.4025,-1.875 3.7926,-2.652 1.3902,-0.778 2.5318,-1.536 2.5358,-1.683 0.01,-0.367 -3.6263,0.04 -6.0027,0.677 -3.7284,0.995 -7.5491,4.447 -8.0011,7.228 -0.3548,2.189 1.6307,3.916 5.8803,5.111 l 1.5906,0.448 -2.1969,0.03 c -3.7726,0.05 -7.7697,-1.959 -9.1358,-4.6 -0.9241,-1.788 -0.6585,-4.584 0.6815,-7.154 2.4336,-4.669 5.5988,-7.48 9.8875,-8.783 7.5842,-2.303 20.236,1.616 32.141,9.957 4.2046,2.945 11.444,10.191 14.4889,14.5 7.6975,10.895 12.0444,25.029 12.0715,39.249 0,4.53 -0.1604,6.742 -0.7548,9.899 -0.9772,5.191 -3.092,12.866 -5.4072,19.625 -1.0003,2.916 -1.8953,5.716 -1.9896,6.219 -0.1182,0.63 0.3398,1.934 1.4674,4.179 l 1.6387,3.263 1.6638,-0.962 c 6.5479,-3.79 13.7302,-10.063 17.9758,-15.702 2.7022,-3.587 5.4594,-9.007 6.5679,-12.908 0.6696,-2.353 0.8049,-3.694 0.8069,-7.957 0,-5.634 -0.5573,-8.231 -2.6871,-12.451 -0.5683,-1.124 -0.9612,-2.045 -0.873,-2.045 0.09,0 1.0444,1.331 2.1268,2.958 2.5578,3.843 4.2868,7.629 5.4133,11.85 0.7948,2.979 0.9081,4.103 0.9081,9.059 0,4.998 -0.1093,6.069 -0.9382,9.193 -1.7098,6.44 -5.1487,12.522 -9.3281,16.499 -3.9681,3.776 -8.4092,6.215 -14.7496,8.102 -1.9313,0.574 -3.5881,1.121 -3.6823,1.215 -0.428,0.428 0.3287,0.483 2.2661,0.166 8.0483,-1.317 15.1314,0.767 20.3332,5.984 2.9678,2.976 4.5263,5.453 5.8102,9.225 2.3674,6.962 1.8693,14.096 -1.4884,21.307 -1.3741,2.949 -1.8973,3.475 -0.9331,0.936 0.443,-1.167 0.5904,-2.711 0.5894,-6.154 0,-3.982 -0.1293,-5.02 -0.9602,-7.762 -1.5315,-5.055 -3.4699,-8.422 -6.7433,-11.71 -4.1435,-4.164 -8.361,-6.07 -14.8237,-6.7 -2.2762,-0.221 -2.4205,-0.194 -2.173,0.415 0.1464,0.359 1.1086,3.199 2.1389,6.31 3.541,10.69 7.061,26.136 9.3462,41.015 1.0043,6.543 2.1209,16.088 1.8813,16.088 -0.06,0 -0.9852,-0.718 -2.0627,-1.596 -1.0774,-0.877 -2.9326,-2.087 -4.1223,-2.687 -2.3845,-1.204 -8.1255,-2.787 -10.1301,-2.793 -0.7046,0 -1.8502,-0.1 -2.5477,-0.213 l -1.2659,-0.21 0.3237,-1.996 c 0.5453,-3.362 0.1704,-7.115 -0.9361,-9.379 -1.9374,-3.959 -7.2926,-6.831 -13.9637,-7.488 l -2.5298,-0.249 0.2726,-1.28 c 0.1504,-0.704 0.2546,-2.252 0.2326,-3.441 -0.1033,-5.487 -4.9172,-10.516 -10.545,-11.013 -2.3453,-0.206 -2.66,-0.446 -2.669,-2.029 -0.02,-3.289 -2.7523,-10.375 -5.4484,-14.134 l -1.2619,-1.757 2.3704,-0.479 c 2.9477,-0.595 5.6358,-1.845 6.9718,-3.239 l 1.0214,-1.066 1.2648,0.947 c 8.4612,6.334 17.0949,17.994 21.6101,29.182 1.3731,3.402 1.1436,2.048 -0.5001,-2.949 -4.2627,-12.959 -8.6898,-20.78 -16.0004,-28.259 l -3.982,-4.075 0.3297,-1.468 c 0.431,-1.919 -0.09,-4.621 -1.325,-6.892 -1.9434,-3.571 -6.8395,-6.924 -12.1265,-8.303 -3.2394,-0.845 -9.5507,-0.753 -13.1429,0.19 -3.2002,0.84 -4.3358,1.39 -10.1941,4.931 -7.044,4.258 -11.5152,5.962 -19.0894,7.275 -1.6508,0.286 -3.0529,0.469 -3.1161,0.406 -0.06,-0.06 1.6558,-1.123 3.8187,-2.356 5.6508,-3.224 10.4868,-6.954 15.6726,-12.093 6.6882,-6.627 12.1135,-9.965 18.8458,-11.595 8.3359,-2.019 20.5216,0.04 26.0542,4.404 1.4222,1.121 1.7079,1.252 1.2699,0.577 -0.9321,-1.437 -4.5764,-4.197 -7.2134,-5.463 -5.1718,-2.484 -10.2723,-3.717 -15.3809,-3.717 -9.6099,0 -16.4634,3.541 -23.6137,12.199 -7.3737,8.928 -12.7239,12.967 -20.7612,15.67 -4.6535,1.565 -7.8147,1.966 -13.0877,1.662 -2.4646,-0.142 -4.3459,-0.39 -4.1825,-0.552 0.1644,-0.161 2.1048,-0.7 4.3118,-1.198 18.8308,-4.238 29.7887,-13.727 35.6801,-30.892 1.2508,-3.644 1.2989,-3.965 1.3079,-8.734 0,-4.312 -0.1142,-5.39 -0.9451,-8.371 -1.1145,-3.996 -2.8445,-7.992 -3.5822,-8.274 -1.1586,-0.445 -4.886,2.121 -11.3698,7.83 -5.2208,4.598 -8.2046,5.927 -10.5419,4.697 -2.1319,-1.122 -1.767,-2.873 1.5335,-7.373 0.9271,-1.264 1.8602,-2.934 2.0747,-3.712 0.5572,-2.029 0.4991,-8.083 -0.09,-9.47 -1.6227,-3.81 -5.6358,-4.012 -11.5613,-0.581 -10.7725,6.236 -17.0868,16 -19.6456,30.382 -0.5513,3.1 -0.6605,5.531 -0.6605,14.735 v 11.023 l -0.6184,-3.421 c -2.3313,-12.887 -3.2895,-22.341 -2.9267,-28.879 0.451,-8.133 1.6087,-14.488 3.7365,-20.507 1.3541,-3.829 2.0978,-5.353 3.953,-8.095 1.3992,-2.067 1.4022,-2.077 0.3438,-1.324 -2.6631,1.897 -6.6231,7.257 -8.7309,11.82 -2.8755,6.222 -3.9469,12.527 -3.5851,21.09 0.1283,3.027 0.3227,5.98 0.434,6.563 0.1804,0.948 0.1022,0.893 -0.7357,-0.522 -2.5738,-4.347 -8.6086,-12.874 -12.3932,-17.51 -4.9973,-6.122 -10.7023,-10.896 -16.4022,-13.725 -2.8004,-1.39 -3.1642,-1.48 -6.0107,-1.48 -2.6971,0 -3.2714,0.123 -5.2218,1.112 -2.5468,1.292 -8.3229,5.376 -8.1676,5.775 0.06,0.149 2.0146,1.753 4.3479,3.564 4.6004,3.568 10.8787,8.847 10.7113,9.006 -0.06,0.05 -1.4563,-0.206 -3.109,-0.578 -6.5559,-1.472 -14.4248,-1.169 -19.5625,0.753 -2.2471,0.84 -4.8971,3.033 -5.5386,4.582 -0.884,2.134 0.1825,5.842 3.2234,11.207 2.9366,5.181 11.5211,13.016 19.3138,17.63 7.2826,4.312 16.2149,8.069 22.7186,9.559 3.1312,0.716 3.3797,0.82 1.5907,0.655 -7.1783,-0.658 -12.9294,-2.273 -23.1596,-6.504 -11.7377,-4.854 -13.0357,-5.048 -32.6532,-4.898 -11.9452,0.09 -14.3176,0.02 -17.3073,-0.512 -4.1876,-0.748 -10.3215,-2.721 -12.9765,-4.175 l -1.9454,-1.066 1.9454,0.205 c 1.0694,0.111 3.3766,0.375 5.1266,0.587 1.9565,0.236 6.3224,0.307 11.3368,0.182 13.3403,-0.33 22.892,0.668 29.945,3.132 1.3771,0.482 2.5608,0.819 2.628,0.751 0.07,-0.07 -1.1116,-0.686 -2.623,-1.375 -9.6629,-4.403 -22.0441,-6.457 -33.8649,-5.617 -7.2174,0.513 -12.2839,0.508 -15.4431,-0.01 -2.4255,-0.401 -2.5308,-0.461 -3.518,-2.018 -1.3801,-2.176 -2.8926,-6.2 -4.0071,-10.661 -2.195,-8.786 -3.1241,-10.522 -6.6291,-12.38 -1.3911,-0.736 -3.4448,-1.218 -6.641,-1.56 l -1.9455,-0.208 1.9425,1.084 c 1.0684,0.596 2.3884,1.511 2.9336,2.033 1.4373,1.379 3.3015,5.334 3.5862,7.611 0.3006,2.409 -0.09,3.26 -2.8335,6.228 -1.9634,2.121 -1.9865,2.133 -2.9848,1.617 -1.9013,-0.983 -5.1667,-4.359 -6.3333,-6.547 -0.6335,-1.189 -1.2308,-2.082 -1.3271,-1.986 -0.3167,0.317 0.9893,4.25 2.1309,6.416 0.6254,1.186 2.3022,3.329 3.8056,4.862 1.4784,1.506 2.4726,2.74 2.2111,2.74 -0.7648,0 -4.7097,-1.409 -7.1493,-2.555 -2.5618,-1.202 -4.5774,-2.894 -6.1229,-5.14 -0.5853,-0.851 -1.1286,-1.484 -1.2067,-1.406 -0.2737,0.273 1.7098,4.689 2.9336,6.534 0.6796,1.023 2.2932,2.836 3.5872,4.026 2.649,2.44 2.3122,2.506 -2.0677,0.405 -6.6391,-3.185 -11.4099,-10.813 -11.449,-18.305 -0.02,-4.578 1.325,-7.426 4.5393,-9.591 2.2661,-1.526 1.6998,-1.532 -1.0454,-0.01 -4.0472,2.241 -6.1881,6.356 -6.1881,11.893 0,13.356 11.1794,22.384 31.8223,25.695 3.5842,0.575 6.0097,0.644 20.4595,0.583 9.0165,-0.04 16.3281,0 16.2489,0.07 -0.2355,0.236 -10.8065,2.929 -14.6092,3.722 -4.7858,0.997 -10.0758,1.213 -17.6791,0.72 -8.0804,-0.523 -13.0447,-1.216 -18.1302,-2.527 -12.0364,-3.104 -20.8654,-8.972 -28.153,-18.714 -5.4584,-7.298 -7.9671,-14.159 -7.5461,-20.636 0.2806,-4.3 1.2939,-6.627 4.1183,-9.452 3.2033,-3.203 5.2029,-3.972 10.4267,-4.007 l 3.8528,-0.03 -2.0847,-0.483 c -4.3149,-0.999 -10.098,0.416 -13.4586,3.292 -8.5414,7.311 -6.0798,21.755 6.2041,36.399 7.4339,8.862 16.6298,13.58 30.3229,15.554 5.2058,0.751 16.9695,1.381 22.9331,1.226 2.6259,-0.07 4.7738,-0.02 4.7738,0.105 0,0.345 -10.9569,4.322 -15.3809,5.583 -2.1389,0.611 -6.0378,1.533 -8.6627,2.049 -4.3619,0.859 -5.5045,0.939 -13.2591,0.938 -7.6414,0 -8.768,-0.08 -11.3147,-0.777 -8.2708,-2.27 -13.3484,-7.354 -12.8222,-12.836 0.1003,-0.999 0.4511,-2.053 0.8369,-2.489 0.4952,-0.557 0.5322,-0.711 0.1403,-0.587 -0.2916,0.09 -0.903,0.712 -1.358,1.377 -1.0414,1.525 -0.9131,3.735 0.3668,6.32 0.4851,0.982 0.7878,1.785 0.6715,1.784 -0.433,0 -8.0974,-6.385 -9.5066,-7.914 -1.5786,-1.712 -2.0466,-2.891 -1.6988,-4.276 0.3287,-1.308 2.2791,-3.366 3.1912,-3.366 0.7828,0 2.0587,1.115 2.4265,2.121 0.1253,0.342 0.2045,0.241 0.2225,-0.283 0.04,-1.054 -0.8479,-2.752 -1.5796,-3.033 -0.3147,-0.121 -1.1405,-0.219 -1.8351,-0.219 -1.0123,0 -1.5295,0.279 -2.5949,1.399 -4.2417,4.459 -1.3912,13.233 6.4346,19.803 2.7252,2.288 7.5662,4.926 12.1135,6.602 4.0101,1.477 2.0146,1.234 -3.4949,-0.426 -6.7403,-2.03 -14.6192,-5.814 -24.8775,-11.946 -6.6141,-3.954 -8.0243,-4.471 -12.1827,-4.471 -6.7924,0 -13.2621,1.318 -16.7661,3.417 -6.4727,3.875 -9.7441,10.474 -10.2353,20.648 -0.462,9.57 1.5736,15.697 6.5168,19.61 2.631,2.084 5.3562,3.373 10.1651,4.811 2.1389,0.639 3.957,1.211 4.0402,1.269 0.2746,0.194 -1.1817,1.188 -3.1561,2.154 -1.9054,0.932 -2.0677,0.949 -8.0183,0.874 l -6.0738,-0.08 -0.9982,0.968 c -0.5483,0.533 -1.7219,1.761 -2.607,2.729 -0.886,0.968 -2.5167,2.605 -3.6242,3.637 -1.1085,1.032 -2.0146,1.93 -2.0146,1.996 0,0.07 1.4353,0.139 3.1913,0.162 3.1952,0.04 6.0868,0.485 7.039,1.077 1.1686,0.725 -1.1997,2.329 -7.048,4.774 -7.6945,3.218 -10.9439,5.173 -12.5676,7.564 -1.7289,2.543 -1.0323,3.998 3.3737,7.044 1.2147,0.84 1.9454,1.599 1.9454,2.022 0,0.468 -0.897,1.23 -2.8996,2.463 -3.546,2.181 -6.2412,4.075 -6.0588,4.258 0.07,0.07 1.2459,-0.01 2.602,-0.197 1.357,-0.182 4.425,-0.576 6.8174,-0.875 4.9513,-0.617 8.323,-1.596 13.9768,-4.052 8.5043,-3.695 11.4069,-3.151 20.6649,3.867 5.0415,3.821 9.7482,6.344 14.7626,7.911 6.3885,1.997 11.2024,2.488 14.518,1.482 0.9551,-0.29 1.8071,-0.528 1.8953,-0.53 0.09,0 -0.7277,0.786 -1.8101,1.751 -3.4569,3.081 -4.1054,5.995 -1.8813,8.457 1.8732,2.073 2.8134,2.343 5.7891,1.667 1.3631,-0.31 2.8756,-0.565 3.3607,-0.565 1.2468,0 1.4001,-0.487 0.5793,-1.835 -1.0073,-1.65 -0.9301,-3.513 0.1984,-4.855 1.2659,-1.504 2.8605,-1.464 5.9556,0.15 3.8627,2.013 5.0765,1.783 10.2783,-1.956 4.7618,-3.422 8.2097,-4.837 12.6307,-5.183 2.62,-0.204 2.7623,-0.261 3.535,-1.423 2.0517,-3.079 10.4398,-8.006 16.717,-9.819 5.6579,-1.634 8.9844,-2.043 15.0272,-1.846 6.2111,0.201 8.7438,0.759 10.3956,2.289 1.5375,1.424 2.8073,2.161 5.0555,2.935 4.2717,1.469 7.3787,1.815 18.6694,2.075 9.8273,0.228 11.1804,0.331 13.0797,0.996 1.1646,0.407 2.1749,0.685 2.2441,0.616 0.07,-0.07 -0.4059,-1.132 -1.0564,-2.36 -1.6147,-3.056 -3.8899,-5.245 -7.044,-6.78 -2.9437,-1.432 -2.9096,-1.487 0.474,-0.771 4.7739,1.013 8.0644,3.464 10.1251,7.546 0.8479,1.681 1.6527,2.553 4.2396,4.597 4.0752,3.219 5.4423,5.341 5.2389,8.136 -0.1153,1.576 -0.3338,2.078 -1.3441,3.086 -0.6635,0.663 -2.204,1.737 -3.4227,2.389 l -2.2171,1.184 2.8244,0.606 c 7.4049,1.592 15.1434,7.711 18.4109,14.558 2.4325,5.096 3.529,12.617 2.8635,19.642 -0.8059,8.508 -3.048,16.324 -6.9378,24.188 -5.2098,10.533 -10.1801,14.878 -21.1771,18.518 -9.4906,3.141 -17.8486,4.239 -24.214,3.182 z m -82.2689,-192.569 c -3.3185,-2.234 -7.1954,-5.342 -10.2854,-8.247 -6.7714,-6.366 -14.8698,-10.982 -20.9947,-11.968 -5.0575,-0.815 -10.9579,1.13 -13.5307,4.461 -0.4841,0.625 -0.09,0.391 1.0614,-0.635 5.6478,-5.023 16.2519,-3.112 26.1594,4.716 1.7881,1.413 4.7268,3.733 6.5289,5.157 2.8875,2.28 5.2589,3.801 11.2565,7.219 2.5899,1.475 2.4857,1.102 -0.1954,-0.703 z m 77.8067,-10.113 c -12.8451,-4.266 -21.2212,-8.475 -27.756,-13.947 -6.3224,-5.294 -10.3024,-11.368 -12.2188,-18.644 -0.891,-3.378 -0.9181,-10.419 -0.05,-13.579 2.3514,-8.593 8.6787,-15.477 17.9298,-19.506 3.2143,-1.399 2.0316,-1.276 -1.6067,0.169 -6.61,2.624 -12.0664,6.956 -15.6666,12.441 -3.527,5.372 -5.0585,10.437 -5.0715,16.772 0,4.495 0.6565,7.55 2.5057,11.496 1.9183,4.094 3.7515,6.631 7.1592,9.912 7.7627,7.471 16.0355,11.308 33.1874,15.395 7.6855,1.83 8.1706,1.675 1.5907,-0.509 z m -93.356,-4.863 c -1.1607,-1.187 -3.8608,-3.59 -5.9997,-5.34 -10.2723,-8.4 -13.7512,-12.443 -14.6633,-17.041 -0.2485,-1.252 -0.2916,-1.304 -0.3237,-0.387 -0.1463,4.219 3.7265,9.101 13.3954,16.89 2.8194,2.271 6.0818,5.002 7.2485,6.07 1.1666,1.067 2.196,1.946 2.2872,1.953 0.09,0 -0.7838,-0.957 -1.9444,-2.145 z m 238.8987,-6.68 c 3.4087,-5.159 3.9951,-9.93 1.7971,-14.629 -2.3895,-5.105 -6.9949,-8.268 -12.5415,-8.615 -3.1502,-0.196 -4.5584,0.327 -2.1138,0.785 2.2932,0.43 4.9723,1.998 6.9407,4.061 5.4865,5.753 6.3044,13.975 2.176,21.878 l -1.5987,3.061 1.7931,-1.944 c 0.9873,-1.07 2.5829,-3.138 3.5471,-4.597 z m -148.0173,1.746 c -3.3917,-1.717 -6.0287,-4.656 -5.7671,-6.429 0.09,-0.628 0.5743,-0.845 3.057,-1.378 7.1933,-1.544 11.01,-5.062 12.1516,-11.201 0.7306,-3.93 -0.9382,-10.172 -3.2855,-12.288 -0.5893,-0.53 -0.4821,-0.173 0.4831,1.617 2.2882,4.242 2.5749,8.398 0.8419,12.168 -1.2087,2.628 -2.4716,3.936 -5.0064,5.184 -4.8389,2.382 -12.4152,1.647 -17.2201,-1.671 -1.7329,-1.196 -2.4686,-2.369 -2.9607,-4.72 l -0.4069,-1.945 -0.2646,2.024 c -0.9181,7.022 3.9219,14.262 11.5482,17.274 2.0096,0.794 7.5411,2.382 8.4201,2.418 0.2917,0.01 -0.4239,-0.462 -1.5906,-1.053 z m 69.8738,-16.326 c 0.7396,-8.421 -2.0958,-16.324 -8.1205,-22.63 -8.1716,-8.553 -19.9313,-13.699 -31.3161,-13.704 -1.734,0 -3.057,0.1 -2.9397,0.212 0.1173,0.117 1.4743,0.432 3.0148,0.7 13.6731,2.372 28.8616,13.731 35.0617,26.22 1.6748,3.374 3.067,7.741 3.3967,10.653 0.1363,1.205 0.3308,2.109 0.432,2.008 0.1002,-0.1 0.3127,-1.657 0.4711,-3.459 z m -181.5374,-4.065 c -0.09,-0.344 -0.1694,-0.147 -0.1764,0.436 0,0.583 0.07,0.865 0.1633,0.625 0.1003,-0.239 0.1023,-0.716 0.01,-1.061 z m 360.9379,205.476 c -3.5932,-0.74 -8.37,-3.212 -11.2355,-5.815 -4.0352,-3.666 -8.1114,-9.314 -11.1513,-15.451 -2.5739,-5.194 -2.5498,-4.773 -0.3949,-6.797 1.0323,-0.969 1.9173,-1.722 1.9664,-1.673 0.05,0.05 0.6655,1.438 1.3701,3.086 3.4719,8.12 6.4657,12.989 10.4157,16.939 4.2116,4.211 8.8932,6.546 13.9958,6.976 7.5161,0.636 12.9815,-2.757 15.4671,-9.599 l 0.6435,-1.772 -0.2015,2.052 c -0.4119,4.196 -3.3015,8.679 -6.8335,10.601 -3.6583,1.992 -8.827,2.526 -14.0419,1.453 z m -56.9263,-10.262 c -3.8899,-0.976 -8.1936,-2.846 -11.1383,-4.839 -4.6365,-3.139 -11.4601,-10.034 -12.4142,-12.545 -0.426,-1.122 0.1523,-1.841 1.4783,-1.841 1.2228,0 6.2813,1.568 8.4893,2.634 2.0216,0.974 2.8004,1.275 2.8004,1.084 0,-0.348 -8.0984,-5.447 -9.6108,-6.051 -1.0264,-0.411 -1.4964,-0.762 -1.2379,-0.927 1.0264,-0.652 9.651,0.02 12.5886,0.979 0.859,0.28 1.6177,0.456 1.6849,0.388 0.1623,-0.162 -6.0979,-3.036 -9.4285,-4.328 l -2.645,-1.027 2.1148,-0.29 c 2.0617,-0.284 11.3097,-0.06 13.4285,0.317 0.7558,0.137 0.9081,0.09 0.5303,-0.146 -0.8149,-0.519 -7.882,-2.399 -11.9592,-3.181 -2.0066,-0.385 -3.7225,-0.774 -3.8117,-0.863 -0.1954,-0.195 4.8811,-0.847 9.0536,-1.164 2.7422,-0.207 11.5091,0.251 15.0061,0.786 2.8555,0.436 0.904,-0.278 -3.0269,-1.109 -4.8901,-1.032 -10.8887,-1.836 -15.869,-2.125 -2.0417,-0.12 -4.2697,-0.306 -4.9503,-0.415 -1.2127,-0.196 -1.2198,-0.207 -0.3538,-0.538 3.8668,-1.478 13.8926,-3.09 19.6136,-3.154 2.9717,-0.03 3.095,-0.06 1.778,-0.423 -1.8923,-0.519 -17.5739,-0.479 -21.1811,0.05 -1.5375,0.228 -2.8485,0.359 -2.9146,0.294 -0.07,-0.07 1.0684,-0.799 2.5187,-1.629 3.1612,-1.809 9.3312,-4.331 12.7429,-5.211 1.3591,-0.35 2.1409,-0.687 1.738,-0.748 -0.9351,-0.142 -14.1652,2.509 -17.14,3.434 -1.2388,0.386 -2.3062,0.647 -2.3723,0.581 -0.1885,-0.189 4.8039,-4.119 7.5561,-5.949 1.3671,-0.909 3.8267,-2.372 5.4654,-3.252 1.6388,-0.88 2.8645,-1.603 2.7232,-1.606 -0.9622,-0.02 -12.1335,4.779 -15.7427,6.766 -1.4102,0.776 -2.5639,1.313 -2.5639,1.195 0,-0.476 1.5736,-3.29 2.7162,-4.859 0.6665,-0.915 2.0196,-2.307 3.0068,-3.093 0.9873,-0.786 1.6919,-1.429 1.5656,-1.429 -0.3718,0 -5.9004,3.497 -7.3768,4.667 -0.7467,0.591 -1.4543,0.98 -1.5715,0.863 -0.4671,-0.468 3.3947,-6.181 5.9034,-8.733 5.8202,-5.921 14.8858,-9.306 24.9266,-9.311 3.6463,0 5.2549,0.166 7.7797,0.812 7.7145,1.974 12.339,6.424 12.326,11.863 0,2.281 -0.3097,3.062 -2.4115,6.183 -2.0376,3.025 -1.6969,3.665 4.0422,7.575 6.4406,4.387 9.2029,7.927 9.2029,11.797 0,3.05 -1.3441,5.493 -3.6924,6.715 -1.6518,0.859 -2.9627,1.154 -6.7383,1.519 -4.1885,0.405 -5.3381,0.814 -6.0277,2.147 -0.7808,1.51 -0.6364,2.372 0.902,5.411 1.5857,3.134 1.745,4.576 0.7488,6.77 -0.864,1.9 -3.5411,4.201 -6.0017,5.159 -1.6387,0.637 -2.8555,0.793 -6.7704,0.874 -2.6259,0.05 -5.0915,0.02 -5.4804,-0.08 z m -46.4606,-2.443 c -1.9414,-2.211 -2.2892,-3.434 -2.3122,-8.12 -0.02,-3.842 0.06,-4.41 0.8619,-6.01 0.4862,-0.972 1.0434,-1.759 1.2379,-1.748 0.5963,0.03 2.9246,3.723 4.0792,6.463 1.9575,4.642 1.7861,8.552 -0.443,10.113 -1.2378,0.867 -2.226,0.666 -3.4238,-0.698 z m -10.8536,0.151 c -0.5473,-0.605 -0.6715,-1.283 -0.6665,-3.624 0,-2.583 0.1353,-3.133 1.2538,-5.354 0.6846,-1.361 2.1138,-3.626 3.1752,-5.034 l 1.9284,-2.558 0.5152,1.144 c 0.3658,0.813 0.5192,2.526 0.5302,5.918 0.01,4.254 -0.07,4.965 -0.7988,6.541 -1.1907,2.585 -2.3975,3.713 -3.97,3.713 -0.867,0 -1.5155,-0.247 -1.9675,-0.746 z m -195.5913,-7.656 c -0.8019,-2.477 -1.72,-5.538 -2.0397,-6.803 -1.2598,-4.975 -1.6567,-5.285 -4.7598,-3.712 -0.9602,0.486 -1.8302,0.884 -1.9334,0.884 -0.2686,0 -0.1654,-11.683 0.1123,-12.638 0.2185,-0.756 0.3448,-0.7 2.7041,1.189 1.3621,1.089 3.947,3.009 5.7461,4.266 1.7991,1.257 3.2704,2.431 3.2704,2.609 0,0.178 -0.3167,1.479 -0.7036,2.89 -1.0103,3.686 -1.4032,8.349 -1.0323,12.265 0.1733,1.833 0.2656,3.383 0.2054,3.444 -0.06,0.06 -0.7677,-1.917 -1.5695,-4.394 z m 187.123,2.937 c -0.5101,-0.511 -0.8659,-1.274 -0.8639,-1.856 0,-2.806 3.7665,-7.33 8.7208,-10.502 2.7342,-1.751 3.4408,-1.974 3.1752,-1.006 -0.09,0.341 -0.3638,1.495 -0.6014,2.564 -1.0333,4.656 -3.8477,9.197 -6.643,10.718 -2.1519,1.172 -2.6872,1.183 -3.7877,0.08 z m 30.2057,0.161 c -2.7884,-1.474 -6.2542,-6.551 -7.5612,-11.075 -0.3268,-1.133 -0.5222,-2.133 -0.433,-2.222 0.3438,-0.343 5.0374,1.637 6.8666,2.897 3.2684,2.252 5.739,5.678 5.7581,7.986 0.01,1.211 -1.5856,3.126 -2.5869,3.105 -0.4209,0 -1.34,-0.319 -2.0436,-0.691 z m -36.5701,-6.879 c -3.3596,-3.359 3.2714,-8.683 11.5683,-9.286 3.996,-0.291 4.1795,-0.126 2.3483,2.107 -2.8505,3.473 -5.3502,5.651 -7.8799,6.864 -3.0329,1.456 -4.8039,1.548 -6.0367,0.315 z m 135.4026,-2.665 c 1.6708,-2.428 2.8625,-5.031 3.8237,-8.354 0.6905,-2.384 0.8078,-3.603 0.8078,-8.444 0,-6.236 -0.4971,-8.62 -2.7262,-13.07 -3.8076,-7.598 -11.1042,-13.393 -20.0796,-15.949 -4.3359,-1.234 -12.316,-0.749 -18.475,1.123 -1.4102,0.429 -0.452,-0.597 1.9454,-2.081 10.9168,-6.76 17.7844,-7.43 27.3141,-2.663 13.9497,6.979 22.0982,18.095 22.0982,30.147 0,7.056 -2.183,11.852 -7.3677,16.184 -1.733,1.448 -4.9753,3.391 -7.2305,4.333 l -1.338,0.559 z m -94.7523,0.776 c -2.8755,-1.007 -7.6263,-4.951 -8.9563,-7.436 -0.5863,-1.095 0.03,-1.255 3.969,-1.027 6.1179,0.353 10.3104,2.444 11.2596,5.614 0.3678,1.228 0.3337,1.499 -0.2987,2.348 -0.5853,0.787 -1.0263,0.975 -2.4456,1.045 -0.9712,0.05 -2.5217,-0.191 -3.528,-0.544 z m -19.3008,-3.748 c -3.1562,-1.127 -4.8921,-3.577 -4.8921,-6.905 0,-3.237 1.759,-6.094 4.3549,-7.075 2.5247,-0.955 6.194,-0.117 8.0382,1.834 2.5198,2.667 2.8204,6.616 0.7247,9.533 -1.9174,2.671 -5.1718,3.704 -8.2257,2.613 z m -238.7805,-5.517 c 0.6405,-9.014 2.7102,-12.687 7.7877,-13.824 2.166,-0.485 4.7699,-0.01 8.4462,1.541 l 2.0226,0.853 -1.7059,0.63 c -5.8232,2.154 -11.5913,6.689 -15.3127,12.038 l -1.4764,2.122 z m 217.5021,1.631 c -3.7144,-1.392 -4.1073,-4.676 -0.7276,-6.088 1.5756,-0.658 6.5038,-0.633 9.7511,0.05 3.1392,0.66 6.4236,2.099 6.2162,2.722 -0.08,0.246 -1.8202,1.123 -3.8628,1.949 -3.101,1.254 -4.2356,1.534 -6.8656,1.688 -2.2692,0.135 -3.533,0.04 -4.5113,-0.322 z m 39.2252,-0.955 c -3.2404,-0.795 -7.0019,-2.391 -6.7183,-2.849 0.3348,-0.542 3.3987,-1.957 5.9275,-2.736 2.659,-0.82 6.9307,-1.005 8.6025,-0.371 2.641,1.001 3.3045,3.051 1.6036,4.954 -1.6236,1.818 -4.7437,2.15 -9.4153,1.002 z m 80.4066,-3.523 c -2.3974,-0.493 -5.6458,-2.229 -7.503,-4.008 -1.74,-1.667 -3.8117,-5.288 -3.8107,-6.659 0,-0.443 0.9201,-2.186 2.0437,-3.873 l 2.0426,-3.068 2.2491,1.831 c 1.4192,1.154 2.7643,2.677 3.6473,4.128 1.2328,2.027 1.3681,2.152 1.1466,1.06 -0.7778,-3.833 -2.4706,-6.943 -4.9823,-9.154 -0.853,-0.751 -1.5505,-1.439 -1.5505,-1.528 0,-0.219 4.0301,0.346 5.8112,0.815 0.7898,0.208 2.1128,0.753 2.9396,1.209 0.8259,0.457 1.5025,0.736 1.5025,0.622 0,-0.114 -0.6545,-1.055 -1.4544,-2.093 -1.4242,-1.846 -2.7743,-2.891 -5.2599,-4.074 l -1.2408,-0.59 1.4142,-0.02 c 5.4845,-0.08 11.8038,4.169 14.5881,9.803 1.2008,2.429 1.322,2.937 1.314,5.523 -0.01,3.51 -1.0023,6.007 -3.097,7.8 -2.3163,1.983 -6.5018,2.955 -9.8003,2.276 z m -105.8975,-1.499 c -6.5068,-0.861 -10.2173,-2.041 -12.5115,-3.979 -2.2611,-1.911 -2.5919,-4.477 -0.7066,-5.487 3.2193,-1.722 12.4874,3.446 15.1314,8.44 0.2365,0.448 0.3809,0.926 0.3197,1.06 -0.06,0.135 -1.0654,0.12 -2.233,-0.03 z m 18.0189,-1.508 c 0.892,-2.136 1.8762,-3.23 5.0685,-5.632 2.8515,-2.147 5.4654,-3.364 7.2264,-3.364 0.9462,0 2.623,0.935 2.8806,1.607 0.8469,2.206 -1.0584,4.4 -5.3853,6.201 -2.4135,1.004 -8.0693,2.429 -9.692,2.441 -0.5773,0 -0.5853,-0.09 -0.1002,-1.253 z m -2.638,-2.576 c 0,-2.608 4.2827,-9.977 6.7463,-11.608 2.7623,-1.828 5.6338,-1.378 5.6258,0.881 -0.01,3.113 -4.6385,8.184 -9.5577,10.473 -2.3042,1.073 -2.8144,1.119 -2.8144,0.254 z m -12.7349,-0.391 c -2.9507,-1.561 -6.8616,-6.386 -7.9651,-9.827 -1.5415,-4.809 1.8291,-7.168 5.302,-3.71 2.3493,2.34 4.0021,6.67 4.5854,12.016 0.2716,2.494 0.1303,2.606 -1.9223,1.521 z m 3.6533,-2.935 c -1.7019,-3.466 -2.0347,-4.81 -2.0347,-8.221 0,-3.215 0.423,-4.655 1.8442,-6.276 0.8961,-1.022 2.3454,-0.774 3.5611,0.612 1.2639,1.439 1.6678,3.023 1.5786,6.195 -0.1022,3.647 -2.3784,9.899 -3.6042,9.899 -0.1423,0 -0.7477,-0.994 -1.345,-2.209 z m 5.7751,0 c -0.8139,-6.779 0.877,-12.273 4.2366,-13.758 2.3223,-1.027 3.8487,-0.215 4.2507,2.264 0.4319,2.661 -2.2381,8.142 -5.7792,11.864 -1.9163,2.015 -2.4305,1.944 -2.7081,-0.37 z m 2.9747,-24.132 c -0.03,-3.85 -0.904,-13.552 -1.2538,-13.902 -0.1002,-0.1 -0.1824,1.179 -0.1824,2.844 0,4.016 -0.6104,9.801 -1.2118,11.477 l -0.4841,1.348 -1.0474,-2.298 c -2.665,-5.845 -4.5463,-12.899 -4.9101,-18.411 -0.3879,-5.868 1.3922,-11.449 4.5874,-14.383 0.9001,-0.826 1.7199,-1.503 1.8221,-1.503 0.1023,0 0.7798,0.318 1.5055,0.707 2.4786,1.329 3.7024,0.956 7.954,-2.423 5.9816,-4.753 8.3831,-5.808 11.5573,-5.075 2.4706,0.57 4.4531,1.971 5.3191,3.759 0.9682,2.001 0.91,3.011 -0.3408,5.861 -1.331,3.032 -1.3631,4.351 -0.1343,5.489 1.0424,0.965 1.6959,1.106 6.598,1.411 4.1464,0.259 7.038,0.956 8.82,2.131 2.7843,1.834 3.2484,3.954 2.0377,9.296 l -0.7989,3.521 -2.1619,0.419 c -6.5258,1.262 -13.4866,4.767 -17.8084,8.965 -1.0203,0.992 -1.8562,1.709 -1.8562,1.595 0,-0.115 0.2345,-0.874 0.5211,-1.686 0.427,-1.21 1.3671,-5.311 2.5198,-10.988 0.1002,-0.486 -0.3679,0.254 -1.0374,1.643 -1.757,3.646 -6.175,11.295 -6.8445,11.85 -0.5252,0.435 -0.5272,0.387 -0.02,-0.586 0.7888,-1.53 3.4118,-14.477 3.0139,-14.875 -0.06,-0.06 -0.7207,1.598 -1.4774,3.674 -1.7309,4.745 -2.65,6.931 -2.8354,6.745 -0.08,-0.08 0.09,-1.158 0.3738,-2.395 0.875,-3.784 0.3698,-3.127 -2.4065,3.138 -0.5322,1.2 -0.5562,1.053 -0.8108,-4.815 -0.1443,-3.328 -0.3779,-6.239 -0.5192,-6.467 -0.1413,-0.229 -0.443,1.101 -0.6705,2.954 -0.5663,4.611 -1.8773,10.626 -2.188,10.041 -0.1393,-0.261 -0.3618,-1.907 -0.4941,-3.658 -0.1333,-1.75 -0.46,-4.694 -0.7266,-6.541 -0.2677,-1.847 -0.6084,-4.631 -0.7578,-6.188 l -0.2716,-2.828 -0.437,5.657 c -0.5182,6.729 -1.6998,15.084 -2.4054,17.008 -0.4922,1.344 -0.5052,1.282 -0.5333,-2.511 z m -103.7196,-4.243 c -2.8775,-0.73 -5.738,-2.211 -7.7305,-4.002 -1.9836,-1.783 -4.1555,-5.836 -4.4111,-8.229 l -0.1663,-1.559 0.6144,0.884 c 2.226,3.203 6.167,5.838 10.9278,7.307 3.3386,1.03 11.6053,0.859 16.1156,-0.334 7.3677,-1.948 12.9033,-5.301 16.731,-10.134 0.7687,-0.97 1.4583,-1.703 1.5335,-1.628 0.2606,0.261 -3.4599,5.455 -5.4404,7.594 -2.3964,2.588 -6.8776,6.029 -9.7181,7.464 -5.294,2.672 -13.6219,3.861 -18.4559,2.637 z m 174.5906,-7.168 c 0.5763,-0.614 6.0518,-2.747 10.6081,-4.132 10.3876,-3.157 12.5295,-3.871 14.96,-4.988 7.49,-3.442 11.3819,-9.6 11.3819,-18.009 0,-4.039 -0.6355,-6.587 -2.642,-10.586 -0.871,-1.739 -1.5135,-3.234 -1.4263,-3.32 0.3508,-0.352 6.158,2.764 8.0984,4.345 l 2.0727,1.688 -0.2515,-2.075 c -0.3719,-3.064 -1.7701,-5.901 -3.8107,-7.736 l -1.7349,-1.561 0.9461,-0.237 c 2.616,-0.657 7.904,0.572 10.8487,2.519 0.7697,0.51 1.4743,0.853 1.5655,0.763 0.09,-0.09 -0.5302,-1.017 -1.3791,-2.06 -5.9846,-7.344 -14.0128,-7.496 -16.1998,-0.305 -0.1955,0.64 -0.2776,0.285 -0.2997,-1.284 -0.02,-1.726 0.1714,-2.557 0.9582,-4.067 0.8559,-1.641 1.2989,-2.054 3.2965,-3.075 2.0196,-1.031 2.7492,-1.203 5.8242,-1.373 5.9405,-0.327 9.7121,0.989 13.4014,4.674 4.0382,4.034 5.7982,8.785 6.0889,16.441 0.2566,6.742 -0.7427,11.692 -3.6222,17.944 -0.6495,1.41 -1.1236,2.564 -1.0534,2.564 0.07,0 1.2829,-1.631 2.6931,-3.624 7.5992,-10.737 10.3545,-20.703 8.5855,-31.053 -1.2278,-7.176 -4.4702,-13.852 -8.6427,-17.795 -3.2363,-3.058 -4.9733,-3.816 -9.3412,-4.072 l -3.527,-0.206 2.4626,-2.608 2.4616,-2.608 -2.648,0.251 c -5.6799,0.537 -9.0315,1.714 -10.7735,3.783 -0.8589,1.021 -0.9491,1.371 -0.8199,3.163 0.1083,1.503 0.3919,2.338 1.1116,3.282 1.1726,1.537 0.5392,1.417 -1.9354,-0.367 -5.1066,-3.683 -6.7945,-10.605 -4.0482,-16.603 2.8775,-6.286 10.8055,-9.495 19.1104,-7.736 7.3727,1.562 13.0085,6.652 17.612,15.907 3.7876,7.613 5.6849,15.947 6.1389,26.957 0.2596,6.31 -0.1212,9.897 -1.5294,14.404 -2.8315,9.058 -10.4969,18.378 -20.3523,24.741 l -0.9702,0.627 0.867,-1.962 c 1.0865,-2.456 1.758,-6.204 1.4533,-8.11 -0.5512,-3.442 -2.6159,-5.382 -6.3524,-5.963 -2.9808,-0.464 -3.4879,-0.287 -1.8853,0.659 1.6187,0.955 3.089,3.165 3.3376,5.016 0.2766,2.062 -0.4951,5.533 -1.76,7.917 -1.9885,3.748 -5.6358,6.266 -10.8687,7.507 -2.195,0.521 -5.1487,0.676 -17.149,0.895 -13.8564,0.254 -17.7453,0.553 -20.5076,1.582 -0.4941,0.184 -0.6003,0.149 -0.3538,-0.114 z m -170.0723,-5.362 c -2.1679,-0.282 -3.7886,-1.111 -4.7007,-2.403 -2.206,-3.125 -4.6736,-9.665 -4.6616,-12.355 0,-0.938 0.3097,-2.369 0.6775,-3.18 0.3679,-0.81 0.5764,-1.566 0.4641,-1.679 -0.3408,-0.34 -5.5145,-0.232 -7.5532,0.159 -3.2503,0.622 -6.1148,0.53 -7.4318,-0.24 -1.3,-0.758 -4.0272,-4.963 -5.3301,-8.217 -2.0477,-5.113 -0.1754,-14.522 4.0732,-20.466 2.3944,-3.35 9.4685,-7.447 15.7839,-9.14 1.784,-0.479 6.4236,-0.881 15.5743,-1.353 l 3.3587,-0.173 -2.2982,0.544 c -9.7923,2.316 -13.9137,3.704 -19.5625,6.59 -7.3597,3.761 -9.68,6.387 -12.0844,13.68 -1.3581,4.118 -1.3,5.886 0.3107,9.371 0.7116,1.54 1.7099,3.346 2.218,4.013 0.865,1.134 1.0193,1.197 2.3814,0.972 0.8008,-0.131 4.5363,-0.692 8.3009,-1.243 3.7655,-0.552 6.9989,-1.157 7.1873,-1.346 0.457,-0.456 -1.1606,-1.565 -3.4248,-2.348 -0.9732,-0.336 -3.084,-0.701 -4.6926,-0.81 -3.4148,-0.233 -3.4529,-0.17 1.8031,-2.961 3.5059,-1.861 3.7585,-2.137 0.9421,-1.026 -2.0136,0.794 -7.3006,1.804 -8.3379,1.593 -0.3719,-0.07 -1.1176,-0.231 -1.6578,-0.344 -2.643,-0.559 -3.1161,-3.189 -1.2488,-6.94 0.8058,-1.619 2.1438,-3.291 4.6846,-5.853 6.0688,-6.122 12.7449,-9.762 22.6956,-12.371 4.3889,-1.152 5.3872,-1.29 9.5015,-1.308 6.0588,-0.03 7.917,0.625 2.634,0.926 -9.3342,0.531 -20.7682,5.26 -26.9312,11.138 -1.9815,1.889 -4.7678,5.379 -4.2967,5.379 0.1223,0 3.3516,-2.061 7.1763,-4.58 10.6241,-6.997 14.7124,-8.922 22.478,-10.588 1.9445,-0.417 4.1725,-0.898 4.9503,-1.069 1.1175,-0.244 1.2769,-0.224 0.7567,0.101 -6.7363,4.16 -10.4076,7.267 -13.7111,11.607 -2.4727,3.248 -5.3973,8.068 -4.8952,8.068 0.1905,0 0.3468,-0.147 0.3468,-0.327 0,-0.639 7.5612,-8.208 11.444,-11.458 4.1094,-3.437 6.6872,-5.348 6.0247,-4.466 -0.2125,0.285 -1.0233,1.335 -1.8001,2.335 -1.9153,2.463 -4.2436,7.056 -7.916,15.613 -4.9783,11.602 -6.9628,14.327 -13.3332,18.305 l -3.4349,2.144 v 1.941 c 0,1.506 0.2827,2.492 1.2379,4.39 1.4893,2.96 2.0095,3.167 7.2424,2.88 4.3258,-0.235 8.2417,-1.089 9.7963,-2.135 1.4372,-0.968 3.1802,-3.833 7.3346,-12.061 4.0101,-7.942 4.4902,-9.737 4.9503,-18.524 0.3357,-6.423 1.0313,-11.445 1.758,-12.693 0.2946,-0.504 0.3628,-0.391 0.3758,0.621 0,0.68 0.4982,4.26 1.0875,7.955 1.765,11.065 1.7961,20.732 0.09,26.695 -2.3844,8.321 -7.7185,13.596 -15.864,15.69 -4.0482,1.039 -10.538,1.466 -14.4769,0.951 z m -83.5398,-7.265 c -7.1823,-2.022 -11.3899,-7.627 -13.0416,-17.373 -0.5142,-3.033 -0.5383,-4.171 -0.1844,-8.621 0.4219,-5.314 1.5304,-10.333 2.9958,-13.561 l 0.7787,-1.717 0.01,2.955 c 0.02,4.567 1.1846,6.972 4.0812,8.449 1.9875,1.014 2.1669,0.872 1.1977,-0.952 -1.1255,-2.115 -1.1225,-4.034 0.01,-7.41 2.0256,-6.036 6.0838,-12.391 11.2495,-17.62 3.2304,-3.271 4.1224,-3.83 1.4423,-0.905 -1.8692,2.04 -5.0174,7.051 -6.172,9.826 -4.3369,10.418 -3.526,20.547 2.0426,25.51 2.1309,1.899 5.6017,3.725 8.2407,4.334 0.9672,0.223 1.758,0.503 1.758,0.622 0,0.483 -2.1779,1.454 -4.438,1.978 -2.9928,0.693 -6.3856,0.241 -9.4395,-1.26 -1.1185,-0.549 -2.0336,-0.824 -2.0336,-0.609 0,0.542 3.0479,3.426 5.1457,4.87 0.9582,0.659 2.6861,1.54 3.8407,1.958 l 2.0988,0.76 -0.9742,0.638 c -1.0384,0.681 -4.1014,1.581 -5.3773,1.581 -1.6277,0 -5.5155,-1.502 -7.7265,-2.985 -1.2709,-0.852 -2.3103,-1.398 -2.3103,-1.215 0,0.738 5.5727,5.893 7.2485,6.704 2.4225,1.172 6.7263,1.205 8.8792,0.07 2.1278,-1.125 4.5563,-4.001 5.3862,-6.382 l 0.7056,-2.024 0.03,2.145 c 0.06,4.708 -2.3083,8.487 -6.172,9.845 -2.4376,0.857 -6.9448,1.046 -9.2761,0.391 z m 85.4852,-2.947 c 0,-0.16 0.5292,-0.916 1.1767,-1.68 3.0469,-3.596 7.1843,-10.905 10.4958,-18.538 2.5037,-5.773 6.4807,-13.242 9.1949,-17.272 1.5716,-2.331 3.0479,-4.398 3.2815,-4.593 0.2335,-0.195 -0.2536,1.036 -1.0815,2.735 -2.0827,4.268 -3.1321,8.733 -3.8087,16.202 -0.3127,3.458 -0.7877,7.329 -1.0543,8.603 -1.5556,7.414 -4.4241,11.738 -8.8993,13.411 -2.9346,1.099 -9.3051,1.873 -9.3051,1.132 z m 58.3395,-5.675 c -4.9562,-1.586 -10.8737,-5.744 -15.0562,-10.578 -6.2842,-7.261 -12.4152,-18.785 -13.7743,-25.888 -0.3197,-1.671 0.2556,-1.005 1.0695,1.238 1.0293,2.84 3.3185,7.23 5.1727,9.918 1.5976,2.317 5.0605,5.891 11.1163,11.474 1.3711,1.264 3.2574,3.173 4.1925,4.243 l 1.6989,1.945 -0.9733,-1.768 c -1.2147,-2.205 -5.1156,-7.397 -9.7852,-13.021 -3.7565,-4.524 -6.0818,-7.875 -7.7526,-11.167 -1.331,-2.625 -1.2709,-2.896 0.3147,-1.396 0.7287,0.689 3.076,2.662 5.2149,4.383 10.5259,8.468 20.701,17.372 23.5144,20.577 l 1.4783,1.684 -0.2355,-1.38 c -0.1293,-0.76 -0.7246,-2.43 -1.323,-3.712 -1.5054,-3.228 -6.15,-7.771 -11.9431,-11.68 -6.8927,-4.654 -13.6009,-9.759 -14.7566,-11.232 -1.9303,-2.464 -2.0887,-3.217 -0.2996,-1.428 2.9857,2.986 5.5847,4.211 16.6478,7.85 5.6398,1.855 10.3284,3.373 10.4207,3.373 0.09,0 -0.1875,-0.249 -0.6205,-0.551 -1.6447,-1.152 -6.4155,-3.315 -10.3304,-4.682 -5.283,-1.845 -6.9709,-2.589 -9.4505,-4.164 -2.7472,-1.746 -6.9849,-5.22 -6.5439,-5.367 0.1945,-0.07 2.163,0.362 4.373,0.949 2.211,0.587 6.3263,1.545 9.1458,2.128 5.1066,1.058 10.1199,2.565 12.325,3.706 2.1248,1.098 1.8752,0.39 -0.3779,-1.074 -3.5451,-2.301 -7.8408,-3.919 -15.3689,-5.785 -6.3384,-1.57 -9.2129,-2.4 -8.5304,-2.464 0.7307,-0.07 10.4287,1.511 12.9183,2.101 3.505,0.831 8.9113,2.815 12.293,4.511 10.3956,5.213 22.3016,17.459 23.0403,23.698 0.1814,1.536 0.1203,1.796 -0.468,1.983 -0.851,0.27 -4.0312,-0.548 -7.451,-1.918 -2.3172,-0.928 -3.4839,-1.604 -7.1582,-4.154 l -0.876,-0.607 0.7537,1.06 c 0.4139,0.583 1.1817,1.458 1.7059,1.945 1.1997,1.112 2.6219,3.067 1.9263,2.648 -0.2816,-0.171 -1.327,-0.828 -2.3222,-1.461 -3.0309,-1.926 -4.7308,-1.904 -4.7308,0.06 0,0.876 3.4328,5.688 5.287,7.413 0.6275,0.584 1.3651,1.491 1.6387,2.015 0.4551,0.871 0.43,1.029 -0.2966,1.836 -0.6295,0.7 -1.8532,1.147 -5.8694,2.141 -5.6799,1.407 -7.1462,1.494 -9.9536,0.596 z m -115.9734,-6.793 c -4.2226,-0.55 -8.2538,-2.582 -11.0481,-5.57 -5.8784,-6.283 -6.1931,-17.284 -0.7527,-26.316 1.8281,-3.034 7.8007,-8.921 11.1623,-11.002 6.8576,-4.243 14.1542,-6.232 22.865,-6.23 8.0232,0 13.5848,1.253 25.1531,5.657 8.7038,3.314 13.1128,4.433 19.4181,4.93 2.6099,0.206 4.8079,0.437 4.8851,0.514 0.3338,0.335 -7.6774,0.628 -13.0105,0.476 -4.9633,-0.14 -6.9739,-0.388 -13.7673,-1.698 -7.5121,-1.449 -8.3109,-1.535 -14.3206,-1.553 -7.047,-0.02 -9.273,0.297 -14.8798,2.116 -10.8055,3.507 -20.5456,11.485 -24.6008,20.153 -0.875,1.868 -1.1647,3.03 -1.288,5.169 -0.1423,2.456 -0.06,2.973 0.7798,4.682 2.3784,4.862 8.0583,7.96 14.6934,8.016 1.6968,0.01 2.4095,0.125 1.9594,0.303 -1.2257,0.487 -4.861,0.664 -7.2484,0.353 z m 155.85,-5.01 c -0.1924,-5.292 -1.1115,-8.726 -3.2844,-12.284 -2.9177,-4.774 -9.1629,-9.334 -17.3214,-12.645 -7.043,-2.86 -13.1208,-4.426 -22.8509,-5.891 -5.1457,-0.774 -10.7574,-2.073 -15.5122,-3.591 -1.8553,-0.591 -2.4115,-0.646 7.4248,0.734 15.2336,2.138 21.8787,1.055 35.8886,-5.844 7.0971,-3.495 9.5827,-4.378 13.9486,-4.955 6.4407,-0.849 14.8438,1.292 18.6835,4.761 1.9945,1.803 3.2564,4.442 3.2564,6.813 0,1.031 -0.06,1.875 -0.1383,1.875 -0.08,0 -1.5235,-0.869 -3.2153,-1.932 -3.3326,-2.091 -5.6228,-3.062 -9.6971,-4.111 -2.9296,-0.755 -5.0354,-0.842 -7.8508,-0.326 -2.0446,0.375 -5.9706,1.794 -5.9706,2.158 0,0.123 1.313,0.311 2.9167,0.419 3.2634,0.22 7.9149,1.48 12.0042,3.251 2.7934,1.209 7.5762,3.932 9.0887,5.172 l 0.8499,0.698 -1.0263,1.079 c -1.4363,1.511 -3.5902,2.709 -6.2222,3.461 l -2.2481,0.644 -1.7489,-1.584 c -3.7506,-3.396 -8.6898,-6.124 -13.2602,-7.326 -2.8083,-0.737 -11.5452,-1.2 -11.1683,-0.591 0.1373,0.222 0.6775,0.405 1.2007,0.408 0.5232,0 2.1449,0.311 3.6032,0.685 10.131,2.593 17.7683,9.192 20.9085,18.066 1.1346,3.207 1.8432,7.836 1.4302,9.348 -0.2395,0.878 -0.8168,1.323 -3.4458,2.654 -1.7379,0.879 -3.7305,2.036 -4.4301,2.569 -0.6985,0.533 -1.354,0.97 -1.4563,0.97 -0.1022,0 -0.2626,-2.108 -0.3568,-4.685 z m -200.5245,-2.829 c -1.2669,-2.215 -1.769,-4.07 -1.751,-6.473 0.03,-4.596 2.5558,-10.194 6.9718,-15.479 1.7079,-2.045 6.569,-6.364 6.8476,-6.086 0.1082,0.108 -0.1313,0.554 -0.5322,0.99 -1.0414,1.134 -3.7064,5.365 -5.0014,7.942 -3.523,7.007 -6.0678,16.194 -5.3571,19.342 0.3838,1.702 -0.1273,1.599 -1.1777,-0.236 z m 194.4477,-1.407 c -1.4322,-3.02 -5.0946,-6.572 -10.2854,-9.977 -3.8206,-2.506 -16.4413,-11.779 -16.4413,-12.079 0,-0.257 5.2098,1.773 9.2931,3.62 10.5911,4.791 16.6047,9.42 18.0841,13.92 0.6314,1.922 1.1255,6.726 0.6896,6.702 -0.1714,-0.01 -0.7738,-0.994 -1.3401,-2.186 z m -134.8433,-0.825 c -3.4679,-3.58 -5.1176,-8.569 -4.3479,-13.144 1.0825,-6.435 6.1089,-12.211 12.8211,-14.738 2.9978,-1.128 7.5432,-1.769 10.4849,-1.477 2.5187,0.25 14.2774,2.31 14.5229,2.545 0.08,0.08 -1.1917,0.144 -2.8284,0.148 -5.2018,0.01 -12.9253,0.636 -15.417,1.242 -7.8929,1.92 -14.093,7.458 -15.834,14.144 -1.1295,4.337 -0.465,8.721 1.763,11.641 1.6668,2.184 1.1416,2.021 -1.1646,-0.361 z m 70.1614,-22.592 c -6.0828,-2.168 -5.0876,-11.046 1.319,-11.768 1.9143,-0.216 4.7027,1.148 5.6598,2.769 1.2649,2.142 0.855,5.759 -0.8609,7.585 -0.7106,0.756 -3.4479,1.953 -4.38,1.915 -0.2085,0 -0.9902,-0.235 -1.7379,-0.501 z m -18.7065,-3.961 c 0.2425,-0.101 0.6404,-0.101 0.884,0 0.2425,0.1 0.04,0.178 -0.442,0.178 -0.4861,0 -0.6856,-0.08 -0.442,-0.178 z m 38.6989,-6.772 c 1.8863,-0.765 4.8029,-2.314 6.4817,-3.443 5.9956,-4.03 13.3052,-11.159 15.2457,-14.867 1.7469,-3.34 1.9975,-4.924 1.9374,-12.246 l -0.05,-6.624 1.2619,-3.904 c 0.6936,-2.147 1.3781,-3.832 1.5195,-3.744 0.1413,0.09 0.8419,1.326 1.5565,2.752 1.9464,3.885 2.5207,6.486 2.5237,11.426 0,3.833 -0.1022,4.54 -1.0824,7.329 -2.2822,6.49 -6.7674,12.024 -13.4095,16.546 -5.6498,3.845 -13.653,7.397 -17.9708,7.974 -1.1136,0.149 -0.6625,-0.122 1.9895,-1.199 z m -9.7341,0.663 -2.0617,-0.199 1.9244,-1.658 c 3.1852,-2.743 4.7909,-5.585 8.1665,-14.456 0.7086,-1.863 1.8502,-4.32 2.5378,-5.462 0.9111,-1.512 1.0424,-1.888 0.4841,-1.387 -1.4283,1.282 -3.536,4.751 -5.8333,9.595 -2.3383,4.933 -5.3722,9.864 -7.0119,11.397 -1.1526,1.077 -1.1837,0.683 -0.06,-0.792 2.0516,-2.698 3.1832,-7.234 3.7304,-14.959 0.6375,-8.981 1.8352,-14.356 4.4181,-19.82 1.753,-3.71 2.9356,-5.525 5.3431,-8.203 1.6979,-1.888 5.3712,-4.84 5.6619,-4.549 0.08,0.09 -0.3408,0.775 -0.9442,1.534 -2.3593,2.968 -5.2499,9.243 -5.2689,11.438 v 0.865 l 1.1486,-1.106 c 1.2187,-1.174 5.1918,-3.418 5.5015,-3.107 0.1012,0.101 -0.5553,1.259 -1.4593,2.572 -1.294,1.881 -3.4228,6.285 -3.4228,7.082 0,0.08 0.6124,-0.629 1.3601,-1.57 2.2801,-2.867 5.314,-5.938 5.5927,-5.66 0.5653,0.566 0.5532,4.79 -0.02,6.468 -0.7386,2.167 -0.7206,2.359 0.1764,1.88 1.2268,-0.657 8.8,-3.111 8.8,-2.851 0,0.131 -1.1235,1.349 -2.4967,2.705 -2.6319,2.598 -7.6273,8.901 -7.3076,9.22 0.1033,0.103 0.9963,-0.223 1.9846,-0.723 3.1451,-1.594 8.1364,-2.53 8.6927,-1.629 0.1143,0.184 -0.3909,0.86 -1.1235,1.502 -4.3549,3.818 -6.8977,6.605 -9.9356,10.891 -5.8293,8.222 -9.2591,10.924 -14.087,11.094 -1.332,0.05 -3.3506,0 -4.4842,-0.112 z m -29.5832,-0.626 c -4.8881,-0.855 -8.7018,-2.376 -13.0827,-5.222 -3.04,-1.973 -8.9404,-6.567 -8.7199,-6.787 0.3238,-0.324 6.7363,2.437 11.7547,5.06 2.7383,1.432 5.1237,2.603 5.2991,2.603 0.1764,0 -0.7116,-0.694 -1.9735,-1.544 -1.2619,-0.849 -3.8778,-2.933 -5.8122,-4.631 -5.8443,-5.128 -7.7937,-6.28 -16.5105,-9.75 -2.9868,-1.189 -6.5529,-2.857 -7.926,-3.708 -4.1023,-2.544 -7.1092,-6.18 -7.7396,-9.361 l -0.2456,-1.237 0.6796,1.061 c 1.2007,1.871 4.1123,4.284 6.612,5.477 1.337,0.637 5.296,2.094 8.799,3.237 9.6529,3.149 11.455,4.334 20.3793,13.4 6.3214,6.423 7.4088,7.241 11.4911,8.639 2.197,0.753 7.3577,1.203 10.5089,0.917 2.8003,-0.255 2.7021,0.07 -0.2546,0.849 -3.6864,0.967 -10.4999,1.479 -13.2591,0.997 z m 4.7538,-2.721 c -4.1625,-1.304 -6.8025,-3.391 -13.9708,-11.046 -2.4856,-2.655 -4.1334,-3.965 -9.1928,-7.312 -7.6905,-5.085 -9.0155,-6.2 -9.3232,-7.841 -0.4911,-2.615 -3.2023,-4.529 -7.8028,-5.504 l -2.1208,-0.45 1.4142,-0.443 c 2.2582,-0.708 5.261,-0.604 7.0651,0.244 1.5956,0.75 3.3125,2.467 4.6024,4.604 0.5623,0.93 1.2529,1.372 3.3597,2.153 1.4583,0.539 2.6911,0.983 2.7402,0.984 0.05,0 0.09,-0.275 0.09,-0.615 0,-1.15 -1.325,-2.8 -2.8485,-3.553 l -1.5144,-0.75 0.9672,-0.368 c 3.3125,-1.26 6.8415,0.903 7.4609,4.572 0.2276,1.346 0.2917,1.399 2.187,1.824 3.0078,0.672 4.2346,1.816 7.9681,7.425 5.5506,8.34 9.0385,11.54 15.9132,14.597 1.6948,0.753 2.9988,1.507 2.8955,1.673 -0.2886,0.468 -8.2748,0.311 -9.8874,-0.194 z m 18.7516,-2.509 c 0.7056,-8.9 2.192,-18.638 3.5701,-23.399 1.7339,-5.983 4.7117,-11.757 7.9831,-15.473 1.5596,-1.772 4.7258,-4.441 5.267,-4.441 0.1694,0 -0.4881,1.051 -1.4613,2.336 -4.2407,5.603 -5.9225,10.613 -8.1165,24.182 -0.4239,2.625 -1.1686,6.046 -1.6547,7.602 -0.854,2.737 -3.4248,8.249 -5.0295,10.785 l -0.7827,1.237 z m -7.7326,-3.143 c -2.4466,-3.333 -3.944,-5.927 -6.7604,-11.707 -4.2496,-8.721 -5.8132,-11.032 -11.3477,-16.774 -4.4341,-4.599 -8.2448,-7.785 -13.5759,-11.352 -3.4518,-2.311 -9.6449,-5.641 -10.4878,-5.641 -1.1476,0 -0.3157,-0.675 1.312,-1.066 3.7024,-0.888 8.9964,-0.193 14.5971,1.915 5.1117,1.923 9.238,5.782 14.1983,13.275 5.9365,8.969 9.676,16.191 11.8589,22.9 1.3992,4.299 3.6323,12.507 3.4439,12.656 -0.05,0.04 -1.5095,-1.851 -3.2384,-4.206 z m 0.8038,3.868 c -0.09,-0.09 -1.6377,-0.488 -3.4458,-0.891 -1.8081,-0.402 -3.943,-1.066 -4.7458,-1.476 -2.5017,-1.276 -5.4073,-4.438 -9.1738,-9.985 -2.7282,-4.017 -4.5714,-6.274 -7.4219,-9.086 -4.5543,-4.493 -5.2248,-5.726 -5.1767,-9.518 0.07,-5.269 0.07,-5.269 3.6603,0.01 3.9028,5.736 4.9412,6.791 9.1518,9.304 4.0331,2.406 5.7891,4.29 8.3249,8.926 2.5297,4.624 3.532,6.066 6.6721,9.595 1.4483,1.628 2.5609,3.031 2.4737,3.119 -0.09,0.09 -0.2316,0.09 -0.3188,0 z m 140.2486,-37.002 c -3.526,-4.722 -5.9866,-8.756 -8.4973,-13.932 -5.285,-10.894 -7.917,-22.18 -6.9197,-29.672 1.0845,-8.148 4.6596,-15.913 9.9145,-21.53 l 2.2121,-2.364 h 7.1272 7.1271 l 1.2749,1.05 c 1.5265,1.258 2.631,3.469 2.9277,5.859 l 0.2185,1.753 -0.8449,-1.793 c -1.2719,-2.703 -2.3975,-3.434 -5.0315,-3.267 -1.7469,0.11 -2.655,0.426 -4.867,1.691 -1.4954,0.856 -2.5979,1.654 -2.4496,1.775 0.1494,0.12 1.0314,0.409 1.9605,0.642 0.9301,0.234 2.8063,0.858 4.1694,1.389 l 2.4797,0.964 -2.2251,0.558 c -8.817,2.207 -14.6332,10.173 -16.5696,22.691 -0.6124,3.963 -0.2646,15.436 0.5392,17.78 1.3481,3.925 6.5689,14.121 9.6028,18.75 1.2839,1.96 0.1023,0.671 -2.1489,-2.344 z m -9.5276,-26.372 c -1.0113,-9.297 -1.2679,-12.913 -1.299,-18.321 -0.03,-6.009 -0.3648,-5.713 -1.0363,0.933 -0.4871,4.812 -0.2867,10.385 0.5262,14.631 0.6625,3.463 1.9935,8.381 2.21,8.165 0.09,-0.09 -0.09,-2.526 -0.4009,-5.408 z" id="path22" /></g></svg>